<?xml version="1.0" encoding="UTF-8"?>
<svg width="646px" height="239px" viewBox="0 0 646 239" version="1.1" xmlns="http://www.w3.org/2000/svg" xmlns:xlink="http://www.w3.org/1999/xlink">
    <!-- Generator: Sketch 50.2 (55047) - http://www.bohemiancoding.com/sketch -->
    <title>kid</title>
    <desc>Created with Sketch.</desc>
    <defs></defs>
    <g id="kid" stroke="none" stroke-width="1" fill="none" fill-rule="evenodd">
        <g id="logo-Kids-First-Data-Resource-Center">
            <path d="M348.48,29.44 C349.796069,28.4218149 351.225584,27.5594078 352.74,26.87 C354.285446,26.1903182 355.929447,25.7615949 357.61,25.6 C356.324157,25.728476 355.032156,25.7852306 353.74,25.77 C351.446797,25.7158674 349.169729,26.1665016 347.07,27.09 C345.034023,28.0302278 343.144518,29.2595852 341.46,30.74 C340.159494,28.8048737 338.478708,27.1547098 336.52,25.89 C333.952787,24.3752009 330.961315,23.7396888 328,24.08 C325.938529,24.2738883 323.897628,24.6452653 321.9,25.19 C320.141401,25.6501208 318.481082,26.4260659 317,27.48 C316.66,27.72 316.35,27.98 316.06,28.23 C315.77,28.48 315.53,28.72 315.29,28.98 C314.829638,29.4731742 314.408366,30.0014366 314.03,30.56 C312.733238,32.5863304 311.956925,34.9015285 311.77,37.3 C309.546062,36.9047818 307.279056,36.8106036 305.03,37.02 C303.997554,37.1256489 302.974615,37.3095104 301.97,37.57 C301.0367,37.825858 300.126774,38.1603896 299.25,38.57 L298.93,38.72 L298.5,38.89 C297.807359,39.1625429 297.095392,39.3831524 296.37,39.55 L296.01,39.63 C294.317789,40.0009135 292.707869,40.6787745 291.26,41.63 C289.75,42.56 288.12,43.72 286.37,44.94 C285.482577,43.0248667 284.335085,41.2413736 282.96,39.64 C281.141303,37.7233082 278.807842,36.3725396 276.24,35.75 L276.31,35.75 C275.41,35.51 274.49,35.29 273.54,35.08 L272.09,34.8 L270.71,34.57 L270.64,34.57 C267.831429,34.0990897 264.946673,34.4462324 262.33,35.57 C260.144776,36.5786168 258.216499,38.0692711 256.69,39.93 C254.897022,38.2474111 252.715508,37.0346955 250.34,36.4 C247.337076,35.6907644 244.186747,35.9497914 241.34,37.14 C239.563209,37.8423858 237.824189,38.6367942 236.13,39.52 C233.573206,40.765563 231.440824,42.73793 230,45.19 C228.910673,47.2570603 228.247563,49.5218375 228.05,51.85 C225.795866,51.3870254 223.479196,51.3126214 221.2,51.63 C220.012998,51.8190528 218.854108,52.1549629 217.75,52.63 C216.622358,53.1328245 215.547138,53.7458001 214.54,54.46 C213.558061,55.1881468 212.532843,55.8560407 211.47,56.46 C210.752234,56.8242057 210.094585,57.2963637 209.52,57.86 C209.093772,58.3302378 208.73684,58.8589016 208.46,59.43 C208.125287,60.0947566 207.730298,60.7274074 207.28,61.32 C206.703547,62.0477902 206.030703,62.6937205 205.28,63.24 C204.956866,61.3445816 204.529552,59.4684052 204,57.62 C202.858027,55.1288226 201.264479,52.8707305 199.3,50.96 C199.09,50.78 198.87,50.59 198.62,50.41 C198.03155,50.068218 197.40357,49.7995636 196.75,49.61 C196.414533,49.5834191 196.076974,49.6104238 195.75,49.69 L194.93,49.89 C194.39,50.02 193.84,50.15 193.28,50.32 C193.01,50.4 192.73,50.5 192.46,50.6 L192.04,50.78 L191.65,50.96 L190.16,51.67 L187.16,53.11 C186.130649,53.5791318 185.075638,53.989785 184,54.34 C182.929519,54.5456225 181.823245,54.4557378 180.8,54.08 C179.706272,53.854559 178.57642,53.8716263 177.49,54.13 C176.41,54.35 177.3,55.04 176.4,54.37 C177.26,55.09 176.4,54.25 177.46,54.43 C178.52,54.61 178.87,54.43 179.99,54.57 C180.5,54.57 181.91,55.16 182.43,55.13 C183.066121,55.2138397 183.688251,55.3819831 184.28,55.63 C185.000253,55.9374862 185.657847,56.3747523 186.22,56.92 C186.737926,57.4992296 187.159918,58.1575371 187.47,58.87 C187.780016,59.5794113 187.998439,60.3254105 188.12,61.09 C188.18,61.45 188.21,61.87 188.28,62.28 C188.35,62.69 188.42,63.11 188.53,63.52 C188.72008,64.3724309 189.058567,65.1847995 189.53,65.92 C191.73,69.17 196.41,69.41 196.53,69.41 C198.894571,69.7267549 201.300653,69.380556 203.48,68.41 C204.059242,69.5598248 204.865463,70.5803578 205.85,71.41 C207.020231,72.3624015 208.38594,73.045256 209.85,73.41 C211.506956,73.8281691 213.230951,73.9097783 214.92,73.65 C216.725462,73.3723941 218.466414,72.7728832 220.06,71.88 C221.767249,70.9612132 223.416969,69.9393223 225,68.82 C225.64819,68.353439 226.263018,67.8421963 226.84,67.29 C227.312335,66.8329901 227.750198,66.341648 228.15,65.82 C228.869581,64.8986577 229.470929,63.8908133 229.94,62.82 C230.761993,60.7385472 231.257829,58.5427027 231.41,56.31 C233.572155,56.7910634 235.786061,56.999352 238,56.93 C240.257154,56.8135021 242.461731,56.206049 244.46,55.15 C245.610078,54.5379607 246.79173,53.9871911 248,53.5 C249.936668,52.7648402 251.692914,51.6224274 253.15,50.15 C254.596715,48.6338246 255.933441,47.016387 257.15,45.31 C258.584657,46.8443448 260.154304,48.2466518 261.84,49.5 C263.624364,50.7702184 265.677521,51.6120128 267.84,51.96 L267.52,51.96 L268.52,52.12 L268.99,52.2 L269.44,52.29 C270.03,52.41 270.64,52.54 271.26,52.71 L271.75,52.84 L271.5,52.77 C273.794855,53.3292663 276.184618,53.3770616 278.5,52.91 C280.82079,52.4289385 283.031772,51.5201298 285.02,50.23 C286.24277,52.51361 288.091841,54.4008424 290.35,55.67 C293.456078,57.2542396 297.034957,57.6455683 300.41,56.77 C302.565934,56.2735994 304.66402,55.5530107 306.67,54.62 C308.297619,53.8846097 309.783503,52.8691989 311.06,51.62 C312.045168,50.6688747 312.86027,49.5561419 313.47,48.33 C314.414198,46.249312 314.940819,44.0035286 315.02,41.72 C317.082301,42.1911713 319.173544,42.5252357 321.28,42.72 C321.77,42.72 322.28,42.72 322.72,42.72 L324.06,42.72 C324.904918,42.6801328 325.743085,42.5493788 326.56,42.33 C327.558957,42.0633236 328.579639,41.8859591 329.61,41.8 C331.66792,41.6014351 333.66452,40.9891899 335.48,40 C337.397084,38.9585961 339.185885,37.6967025 340.81,36.24 C342.075367,38.1564383 343.682032,39.8241157 345.55,41.16 C347.9503,42.7362103 350.768788,43.5549306 353.64,43.51 C355.603358,43.5357809 357.56658,43.4489717 359.52,43.25 C357.080066,43.5372756 354.606836,43.2319809 352.31,42.36 C350.522518,41.6432128 348.907083,40.5560323 347.57,39.17 L345.83,37.17 C345,36.08 344.25,34.94 343.5,33.8 C344.5,32.88 345.5,31.96 346.5,31.08 C346.59,31 348.48,29.44 348.48,29.44 Z M202.36,58.44 C202.685039,59.5103842 202.856746,60.6214308 202.87,61.74 C202.93,62.87 203.1,64.4 202.17,65.27 C201.24,66.14 196.35,67 195.24,67 C193.76,66.92 191.63,66.34 190.65,65.17 C190.208889,64.5884989 189.870663,63.9357231 189.65,63.24 C189.518986,62.8765748 189.408807,62.505973 189.32,62.13 L189,60.9 C188.786864,60.0880877 188.474511,59.3055266 188.07,58.57 C187.670068,57.8259114 187.153524,57.1506907 186.54,56.57 C185.893981,56.0431109 185.154389,55.6427817 184.36,55.39 C183.913831,55.2326201 183.450613,55.128564 182.98,55.08 C183.38549,55.0406535 183.786923,54.9670575 184.18,54.86 C185.261217,54.5590486 186.325997,54.2018966 187.37,53.79 L190.46,52.53 L192.01,51.9 L192.39,51.75 L192.75,51.62 C192.99,51.54 193.25,51.47 193.51,51.41 C194.02,51.28 194.51,51.19 195.1,51.09 L195.92,50.94 C196.125921,50.9151746 196.334079,50.9151746 196.54,50.94 C199.54,51.37 200.9,55.04 201.05,55.36 C201.51,56.4 202,57.42 202.36,58.46 L202.36,58.44 Z M227.6,59.11 L227.28,61.71 C227.144526,62.5219762 226.954088,63.3238195 226.71,64.11 C226.59,64.51 226.45,64.9 226.3,65.29 C226.22,65.48 226.14,65.68 226.05,65.87 C225.955098,66.0760557 225.84825,66.2763963 225.73,66.47 C225.73,66.47 224.48,68.26 224.5,68.28 C223.91906,69.0106773 223.265738,69.680751 222.55,70.28 C221.847361,70.6241865 221.118382,70.9117655 220.37,71.14 C219.75,71.32 218.14,71.64 218.14,71.64 C216.168407,71.9188259 214.158681,71.7199111 212.28,71.06 L209.68,69.73 C208.412352,68.8532863 207.359416,67.7012104 206.6,66.36 C207.226921,65.7607106 207.780767,65.0893817 208.25,64.36 C208.67,63.36 209.81,61.19 209.81,61.19 C210.20604,60.0424451 210.708213,58.9343158 211.31,57.88 C211.31,57.88 212.19,56.82 212.11,56.75 C212.39395,56.350043 212.754194,56.01019 213.17,55.75 C214.261308,55.1995099 215.43793,54.8377322 216.65,54.68 C217.01,54.68 217.44,54.55 217.85,54.5 C218.26,54.45 218.68,54.41 219.1,54.39 C219.92575,54.3349462 220.75425,54.3349462 221.58,54.39 L224.21,54.72 C225.41,54.92 226.62,55.18 227.81,55.45 C227.75,56.71 227.7,57.93 227.6,59.13 L227.6,59.11 Z M251.08,48.5 C250.31,49.76 247.38,53.11 247.38,53.11 C246.979513,53.4672068 246.558819,53.8010911 246.12,54.11 C245.511223,54.2674875 244.89341,54.3877105 244.27,54.47 L242.57,54.6 C241.043234,54.6210971 239.5184,54.4836945 238.02,54.19 C238.02,54.19 233,53 231.67,52.65 C231.77,51.33 232.77,46.08 232.77,46.08 C233.275713,44.4032365 234.097102,42.8385232 235.19,41.47 C236.199588,40.2026528 237.433396,39.1315448 238.83,38.31 C240.317886,37.8842337 241.853071,37.6457258 243.4,37.6 C247.671958,37.7030095 251.708197,39.5798242 254.54,42.78 C253.74,44 251.08,48.52 251.08,48.52 L251.08,48.5 Z M283.49,46.84 C282.42,47.54 281.32,48.22 280.21,48.84 C278.06,50.84 271.86,51.84 271.85,51.9 C271.160886,51.9985245 270.466076,52.0519714 269.77,52.06 L269.16,51.77 L268.87,51.62 L267.09,50.62 C265.969058,49.8599603 264.933102,48.9815768 264,48 L262.39,46.18 C261.39,44.99 260.39,43.73 259.33,42.51 C260.22,41.42 264.33,37.51 265.51,36.92 C267.331636,36.1678918 269.224574,35.6016853 271.16,35.23 C271.533314,35.1670483 271.911427,35.1369331 272.29,35.14 C272.69,35.14 273.1,35.14 273.51,35.2 C274.392784,35.5416845 275.257276,35.92887 276.1,36.36 C276.678862,36.7161259 277.233418,37.1103279 277.76,37.54 C279.071988,38.8156178 280.272992,40.2006192 281.35,41.68 C281.77,42.33 283.05,45.86 283.49,46.86 L283.49,46.84 Z M311.25,45.27 C311.25,45.53 311.25,45.78 311.18,46.03 C311.099594,46.6721656 310.934839,47.3009211 310.69,47.9 C309.828844,50.3080622 308.303313,52.4230021 306.29,54 C305.44659,54.6109592 304.557282,55.1559109 303.63,55.63 C302.114225,55.9865505 300.553163,56.1113006 299,56 C293.53,55.31 291.69,52.77 291.43,52.44 C290.113151,51.1270633 288.991701,49.6317973 288.1,48 C289.482268,46.8209672 290.800799,45.5691965 292.05,44.25 L293.51,42.72 C294.286503,41.9097494 295.118518,41.1545874 296,40.46 C296,40.46 297.55,39.4 297.79,39.26 C299.220878,39.1570692 300.656068,39.1270303 302.09,39.17 C305.342844,39.1943764 308.565768,39.7935966 311.61,40.94 C311.564412,42.3951991 311.444255,43.8471044 311.25,45.29 L311.25,45.27 Z M336.19,35.7 C334.607015,37.5494516 332.74045,39.1358633 330.66,40.4 C330.24,40.67 328.55,41.55 328.09,41.74 C327.62,41.74 325.41,41.3 325.41,41.3 C324.83,41.15 324.24,40.96 323.63,40.75 C323.02,40.54 322.4,40.31 321.7,40.1 L319.41,39.35 C318.11,38.91 316.76,38.48 315.41,38.09 C315.517732,36.6397034 315.748563,35.2011905 316.1,33.79 C316.170455,33.0490554 316.345528,32.3218292 316.62,31.63 C316.894176,31.1138103 317.212001,30.6220178 317.57,30.16 C318.335268,28.9094456 319.321263,27.8082487 320.48,26.91 C321.841733,25.8985701 323.372117,25.1367641 325,24.66 C326.688189,24.5426388 328.383506,24.7392956 330,25.24 C331.677442,25.7899235 333.220734,26.6859181 334.53,27.87 C335.339151,28.5808883 336.085267,29.3604629 336.76,30.2 C336.84,30.31 338.26,32.3 338.86,33.2 L336.19,35.7 Z" id="Shape" fill="#F6921E" fill-rule="nonzero"></path>
            <path d="M309.48,43 L309.19,42.59 C309.048249,42.7951022 308.872365,42.9743685 308.67,43.12 C308.436948,43.2828634 308.175945,43.4015013 307.9,43.47 L308.22,43.9 C308.259996,43.9862464 308.230091,44.0887791 308.15,44.14 L311.22,48.34 C311.42,48.62 311.95,48.59 312.39,48.27 C312.83,47.95 313.04,47.47 312.84,47.19 L309.73,43 C309.697814,43.0349187 309.652489,43.0547828 309.605,43.0547828 C309.557511,43.0547828 309.512186,43.0349187 309.48,43 Z" id="Shape" fill="#FD9D6F" fill-rule="nonzero"></path>
            <path d="M304.68,39.33 L305.81,40.89 L307.62,43.41 L307.62,43.47 L308.08,44.11 C308.160091,44.0587791 308.189996,43.9562464 308.15,43.87 L307.83,43.44 C308.105945,43.3715013 308.366948,43.2528634 308.6,43.09 C308.802365,42.9443685 308.978249,42.7651022 309.12,42.56 L309.41,42.97 C309.476341,43.0361121 309.583659,43.0361121 309.65,42.97 L309.23,42.37 L309.15,42.26 L307.31,39.69 C307.31,39.69 305,39.3 304.68,39.33 Z" id="Shape" fill="#B86966" fill-rule="nonzero"></path>
            <path d="M305.9,39.88 L311.82,48.13 C311.557262,48.3188492 311.191444,48.2608537 311,48 L305.15,39.83 L305.9,39.88 Z" id="Shape" fill="#FFFFFF" fill-rule="nonzero" opacity="0.38"></path>
            <path d="M347.8,35.2 L347.86,34.7 C347.615481,34.7460306 347.364519,34.7460306 347.12,34.7 C346.838227,34.6632477 346.566416,34.5715115 346.32,34.43 L346.26,34.96 C346.235458,35.0520974 346.143378,35.1090991 346.05,35.09 L345.81,37.09 L347.55,39.09 L348.01,35.37 C347.958513,35.3824869 347.904147,35.3702557 347.862969,35.3369209 C347.82179,35.303586 347.798507,35.2529589 347.8,35.2 Z" id="Shape" fill="#FD9D6F" fill-rule="nonzero"></path>
            <path d="M346.93,28.17 L346.51,31.17 L346.12,34.25 L346.12,34.31 L346.03,35.1 C346.123378,35.1190991 346.215458,35.0620974 346.24,34.97 L346.3,34.44 C346.546416,34.5815115 346.818227,34.6732477 347.1,34.71 C347.344519,34.7560306 347.595481,34.7560306 347.84,34.71 L347.78,35.21 C347.779844,35.3001179 347.850038,35.3746991 347.94,35.38 L348.04,34.65 L348.04,34.52 L348.43,31.38 L348.85,28.38 C348.85,28.04 348.48,27.78 347.94,27.71 C347.4,27.64 347,27.83 346.93,28.17 Z" id="Shape" fill="#B86966" fill-rule="nonzero"></path>
            <path d="M347.62,28 L346.41,37.66 L345.93,37 L347,28.5 C347.026578,28.1777918 347.307518,27.9369868 347.63,27.96 L347.62,28 Z" id="Shape" fill="#FFFFFF" fill-rule="nonzero" opacity="0.38"></path>
            <path d="M235.65,50.76 L235.38,50.36 C235.231323,50.5568763 235.052447,50.7290022 234.85,50.87 C234.61318,51.0261787 234.348272,51.1348589 234.07,51.19 L234.36,51.62 C234.398791,51.7032956 234.368618,51.8024376 234.29,51.85 L237.17,56.18 C237.36,56.46 237.87,56.43 238.33,56.13 C238.79,55.83 239.01,55.35 238.82,55.13 L235.94,50.8 C235.902631,50.8471107 235.843153,50.8709747 235.783585,50.8627584 C235.724017,50.8545421 235.673221,50.8154679 235.65,50.76 Z" id="Shape" fill="#FD9D6F" fill-rule="nonzero"></path>
            <path d="M232.24,48.9 L233.79,51.18 L234.21,51.82 C234.288618,51.7724376 234.318791,51.6732956 234.28,51.59 L233.99,51.16 C234.268272,51.1048589 234.53318,50.9961787 234.77,50.84 C234.972447,50.6990022 235.151323,50.5268763 235.3,50.33 L235.57,50.73 C235.636341,50.7961121 235.743659,50.7961121 235.81,50.73 L235.42,50.14 L235.35,50.03 L233.66,47.5 L232.66,46.04 L232.24,48.9 Z" id="Shape" fill="#B86966" fill-rule="nonzero"></path>
            <path d="M232.48,48 L238,56.23 C237.872803,56.3125928 237.717935,56.3410897 237.569669,56.3091844 C237.421403,56.2772791 237.291965,56.1876024 237.21,56.06 L232.38,48.81 L232.48,48 Z" id="Shape" fill="#FFFFFF" fill-rule="nonzero" opacity="0.38"></path>
            <path d="M264.38,43.15 L264.43,42.67 C264.185481,42.7160306 263.934519,42.7160306 263.69,42.67 C263.408476,42.642084 263.134184,42.5641987 262.88,42.44 L262.83,42.95 C262.83,43.03 262.74,43.09 262.63,43.08 L262.15,48.3 C262.15,48.63 262.54,48.94 263.08,48.99 C263.62,49.04 264.08,48.82 264.13,48.49 L264.6,43.27 C264.45,43.3 264.37,43.23 264.38,43.15 Z" id="Shape" fill="#FD9D6F" fill-rule="nonzero"></path>
            <path d="M263,38.84 L262.95,39.32 L262.67,42.32 L262.67,42.39 L262.6,43.15 C262.71,43.15 262.8,43.1 262.8,43.02 L262.85,42.51 C263.104184,42.6341987 263.378476,42.712084 263.66,42.74 C263.904519,42.7860306 264.155481,42.7860306 264.4,42.74 L264.35,43.22 C264.35,43.3 264.42,43.37 264.52,43.38 L264.59,42.68 L264.59,42.55 L264.88,39.55 L265.1,37.2 C265.19,36.77 263,38.84 263,38.84 Z" id="Shape" fill="#B86966" fill-rule="nonzero"></path>
            <path d="M263.73,38.31 L262.8,48 C262.488328,47.963439 262.26483,47.6818323 262.3,47.37 L263.11,38.87 L263.73,38.31 Z" id="Shape" fill="#FFFFFF" fill-rule="nonzero" opacity="0.38"></path>
            <path d="M226.22,57.46 L225.92,57.09 C225.787137,57.2983627 225.621701,57.4840564 225.43,57.64 C225.208523,57.8210353 224.953724,57.9569278 224.68,58.04 L225.01,58.44 C225.065368,58.50667 225.065368,58.60333 225.01,58.67 L227.39,61.67 L227.7,58.99 L226.56,57.48 C226.554477,57.5738884 226.473888,57.6455228 226.38,57.64 C226.286112,57.6344772 226.214477,57.5538884 226.22,57.46 Z" id="Shape" fill="#FD9D6F" fill-rule="nonzero"></path>
            <path d="M220.84,53.6 L222.53,55.72 L224.4,58 L224.4,58.05 L224.88,58.65 C224.935368,58.58333 224.935368,58.48667 224.88,58.42 L224.55,58.02 C224.823724,57.9369278 225.078523,57.8010353 225.3,57.62 C225.491701,57.4640564 225.657137,57.2783627 225.79,57.07 L226.09,57.44 C226.156341,57.5061121 226.263659,57.5061121 226.33,57.44 L225.88,56.88 L225.8,56.78 L224,54.42 L222.36,52.35 C222.15,52.1 221.68,52.21 221.25,52.56 C220.82,52.91 220.63,53.34 220.84,53.6 Z" id="Shape" fill="#B86966" fill-rule="nonzero"></path>
            <path d="M221.17,53 L227.3,60.6 L227.17,61.34 L221.1,53.8 C220.899636,53.5593729 220.930891,53.2021732 221.17,53 Z" id="Shape" fill="#FFFFFF" fill-rule="nonzero" opacity="0.38"></path>
            <path d="M251.76,43.92 L251.65,43.46 C251.43885,43.5872896 251.209559,43.6817038 250.97,43.74 C250.692673,43.7947108 250.407327,43.7947108 250.13,43.74 L250.25,44.24 C250.255628,44.2851451 250.242926,44.3306626 250.214736,44.3663705 C250.186545,44.4020785 250.145219,44.4249972 250.1,44.43 L251.1,48.57 C251.47,47.99 252.57,46.13 252.57,46.13 L252,44 C251.911589,44.0435255 251.804614,44.0078672 251.76,43.92 Z" id="Shape" fill="#FD9D6F" fill-rule="nonzero"></path>
            <path d="M248.71,38.72 L249.19,40.72 L249.87,43.62 L249.87,43.69 L250.05,44.43 C250.095219,44.4249972 250.136545,44.4020785 250.164736,44.3663705 C250.192926,44.3306626 250.205628,44.2851451 250.2,44.24 L250.08,43.74 C250.357327,43.7947108 250.642673,43.7947108 250.92,43.74 C251.159559,43.6817038 251.38885,43.5872896 251.6,43.46 L251.71,43.92 C251.72862,43.9776674 251.775008,44.022095 251.833425,44.0382101 C251.891842,44.0543251 251.954447,44.0399644 252,44 L251.83,43.31 L251.83,43.18 L251.13,40.18 L250.66,38.18 C250.58,37.86 250.11,37.76 249.57,37.89 C249.03,38.02 248.63,38.39 248.71,38.72 Z" id="Shape" fill="#B86966" fill-rule="nonzero"></path>
            <path d="M249.26,38.15 L251.5,47.66 L251.07,48.27 L248.85,38.84 C248.810732,38.6940367 248.832136,38.5383979 248.909349,38.408454 C248.986562,38.27851 249.113026,38.1852976 249.26,38.15 Z" id="Shape" fill="#FFFFFF" fill-rule="nonzero" opacity="0.38"></path>
            <path d="M299.54,48.88 L299.4,48.18 C299.203463,48.3415426 298.969746,48.4515271 298.72,48.5 C298.434573,48.5488436 298.141302,48.5212416 297.87,48.42 L298.01,49.18 C298.036261,49.2871726 297.9751,49.3963895 297.87,49.43 L299.14,56 C299.798378,56.1486685 300.481622,56.1486685 301.14,56 L299.79,49.07 C299.79,49.07 299.79,49.07 299.79,49.07 C299.730722,49.0853162 299.667695,49.0726377 299.61895,49.0355918 C299.570206,48.998546 299.541114,48.9412143 299.54,48.88 Z" id="Shape" fill="#FD9D6F" fill-rule="nonzero"></path>
            <path d="M296.11,40.38 L296.75,43.85 L297.6,48.21 L297.6,48.31 L297.81,49.43 C297.9151,49.3963895 297.976261,49.2871726 297.95,49.18 L297.81,48.42 C298.081302,48.5212416 298.374573,48.5488436 298.66,48.5 C298.909746,48.4515271 299.143463,48.3415426 299.34,48.18 L299.48,48.88 C299.485047,48.9331508 299.511135,48.9820775 299.552457,49.015886 C299.593778,49.0496945 299.646902,49.0655781 299.7,49.06 C299.7,49.06 299.7,49.06 299.7,49.06 L299.5,48.06 L299.5,47.87 L298.64,43.42 L298.06,40 C297.97,39.52 297.48,39.31 296.94,39.41 C296.4,39.51 296,39.9 296.11,40.38 Z" id="Shape" fill="#B86966" fill-rule="nonzero"></path>
            <path d="M296.7,40 L299.75,55.77 C299.75,55.77 299.24,56.09 299.15,55.62 L296.31,41 C296.22,40.53 296.39,40.1 296.7,40 Z" id="Shape" fill="#FFFFFF" fill-rule="nonzero" opacity="0.38"></path>
            <path d="M245.44,44.16 L245.7,44.84 C245.447208,44.8057286 245.189876,44.8331773 244.95,44.92 C244.677166,45.0276727 244.438684,45.2073984 244.26,45.44 L243.98,44.71 C243.968756,44.6562277 243.934788,44.609954 243.886857,44.5831125 C243.838926,44.5562709 243.781723,44.551489 243.73,44.57 L241.15,37.81 C240.97,37.34 242.83,36.64 243,37.1 L245.58,43.86 C245.516978,43.874506 245.464154,43.91724 245.436806,43.9758429 C245.409458,44.0344458 245.410636,44.1023807 245.44,44.16 Z" id="Shape" fill="#FD9D6F" fill-rule="nonzero"></path>
            <path d="M247.1,53.36 L245.76,50 L244.15,45.77 L244.15,45.67 L243.74,44.59 C243.791723,44.571489 243.848926,44.5762709 243.896857,44.6031125 C243.944788,44.629954 243.978756,44.6762277 243.99,44.73 L244.27,45.46 C244.448684,45.2273984 244.687166,45.0476727 244.96,44.94 C245.199876,44.8531773 245.457208,44.8257286 245.71,44.86 L245.45,44.18 C245.398724,44.0777327 245.43874,43.9532378 245.54,43.9 L245.92,44.9 L245.99,45.09 L247.64,49.4 L248.53,51.75 C248.137838,52.3561556 247.655642,52.8990472 247.1,53.36 Z" id="Shape" fill="#B86966" fill-rule="nonzero"></path>
            <path d="M247.36,52.33 L241.68,37.42 C241.68,37.42 241.1,37.48 241.28,37.93 L246.91,52.71 C247.08,53.17 247.36,52.33 247.36,52.33 Z" id="Shape" fill="#FFFFFF" fill-rule="nonzero" opacity="0.38"></path>
            <path d="M275.67,43.74 L275.48,44.43 C275.291416,44.257504 275.065549,44.1308817 274.82,44.06 C274.538921,43.9799558 274.241079,43.9799558 273.96,44.06 L274.17,43.32 C274.189268,43.2696506 274.187394,43.213655 274.164802,43.1647067 C274.142211,43.1157584 274.100815,43.0780032 274.05,43.06 L275.93,36.21 C276.555532,36.5525132 277.142264,36.9615492 277.68,37.43 L275.96,43.58 C275.900506,43.5545402 275.832596,43.5579321 275.775934,43.5891935 C275.719273,43.620455 275.680189,43.6760941 275.67,43.74 Z" id="Shape" fill="#FB5C0F" fill-rule="nonzero"></path>
            <path d="M271.67,51.55 L272.5,48.55 L273.68,44.26 L273.68,44.17 L273.98,43.07 C274.030815,43.0880032 274.072211,43.1257584 274.094802,43.1747067 C274.117394,43.223655 274.119268,43.2796506 274.1,43.33 L273.89,44.07 C274.171079,43.9899558 274.468921,43.9899558 274.75,44.07 C274.995549,44.1408817 275.221416,44.267504 275.41,44.44 L275.6,43.75 C275.624926,43.6414705 275.730232,43.5712665 275.84,43.59 L275.56,44.59 L275.51,44.77 L274.31,49.14 L273.5,52.06 C273.420231,52.2861935 273.249627,52.4687989 273.02937,52.5637374 C272.809112,52.6586759 272.559215,52.6573211 272.34,52.56 C271.89,52.44 271.54,52 271.67,51.55 Z" id="Shape" fill="#882D00" fill-rule="nonzero"></path>
            <path d="M272.15,52.34 L276.44,36.73 L275.96,36.39 L271.84,51.39 C271.71,51.85 271.84,52.29 272.15,52.39 L272.15,52.34 Z" id="Shape" fill="#FFFFFF" fill-rule="nonzero" opacity="0.38"></path>
            <path d="M270.05,42.51 L269.94,43.22 C269.737513,43.065897 269.500802,42.9629791 269.25,42.92 C268.96281,42.8775114 268.669488,42.9120199 268.4,43.02 L268.52,42.26 C268.531969,42.2082803 268.522885,42.1539239 268.49475,42.1089065 C268.466614,42.0638892 268.421735,42.0319047 268.37,42.02 C268.37,42.02 268.37,42.02 268.37,42.02 L269.37,35.58 C270.024342,35.2853197 270.732418,35.1287261 271.45,35.12 L270.3,42.33 C270.242691,42.3184191 270.183149,42.3312543 270.1357,42.365417 C270.088252,42.3995798 270.057194,42.4519769 270.05,42.51 Z" id="Shape" fill="#FD9D6F" fill-rule="nonzero"></path>
            <path d="M266.94,50.71 L267.43,47.63 L268.14,43.24 L268.14,43.15 L268.32,42.02 C268.32,42.02 268.32,42.02 268.32,42.02 C268.371735,42.0319047 268.416614,42.0638892 268.44475,42.1089065 C268.472885,42.1539239 268.481969,42.2082803 268.47,42.26 L268.35,43.02 C268.619488,42.9120199 268.91281,42.8775114 269.2,42.92 C269.450802,42.9629791 269.687513,43.065897 269.89,43.22 L270,42.51 C270.010567,42.3979439 270.107599,42.3141432 270.22,42.32 L270.05,43.32 L270.05,43.51 L269.38,48 L268.83,51.58 C268.77,51.78 268.15,51.75 267.61,51.66 C267.389593,51.6343787 267.19053,51.5160976 267.062644,51.3347667 C266.934758,51.1534358 266.890155,50.9262202 266.94,50.71 Z" id="Shape" fill="#B86966" fill-rule="nonzero"></path>
            <path d="M267.53,51.35 L270.08,35.44 L269.46,35.78 L267.11,50.41 C267.04,50.88 267.22,51.3 267.53,51.35 Z" id="Shape" fill="#FFFFFF" fill-rule="nonzero" opacity="0.38"></path>
            <path d="M239.08,47.39 L239.22,47.66 C239.002376,47.8740897 238.855765,48.1498589 238.8,48.45 L239.8,50.45 L242.46,55.45 C242.7,55.88 244.46,54.95 244.22,54.51 L241.66,49.76 L240.38,47.35 C240.110154,47.3049728 239.833096,47.3361418 239.58,47.44 L239.46,47.21 C239.400274,47.0709095 239.240818,47.0044697 239.1,47.06 C239.018895,47.1525828 239.010669,47.2882998 239.08,47.39 Z" id="Shape" fill="#FB5C0F" fill-rule="nonzero"></path>
            <path d="M235.13,41.54 L238.8,48.45 C238.855765,48.1498589 239.002376,47.8740897 239.22,47.66 L239.08,47.39 C239.038023,47.3306041 239.021784,47.2567845 239.03496,47.1852558 C239.048136,47.1137271 239.089613,47.0505394 239.15,47.01 C239.290818,46.9544697 239.450274,47.0209095 239.51,47.16 L239.63,47.39 C239.883096,47.2861418 240.160154,47.2549728 240.43,47.3 L236.76,40.41 C236.689053,40.2761308 236.58155,40.1651601 236.45,40.09 C235.981746,40.5468364 235.540973,41.0310183 235.13,41.54 Z" id="Shape" fill="#882D00" fill-rule="nonzero"></path>
            <path d="M235.7,41.25 L243.13,55.25 C242.86,55.39 242.46,55.17 242.23,54.74 L235.29,41.74 L235.7,41.25 Z" id="Shape" fill="#FFFFFF" fill-rule="nonzero" opacity="0.38"></path>
            <path d="M303.23,45.86 L303.37,46.13 C303.144395,46.3342907 302.987258,46.6031687 302.92,46.9 L303.92,48.9 L306.35,53.8 C306.624309,54.2344497 307.183214,54.3903244 307.642773,54.1605452 C308.102331,53.9307661 308.312974,53.3901174 308.13,52.91 L305.81,48.24 L304.62,45.84 C304.351334,45.7860584 304.072665,45.8139253 303.82,45.92 L303.7,45.68 C303.671968,45.583889 303.589301,45.5137703 303.489904,45.5017949 C303.390507,45.4898196 303.293551,45.5382973 303.243494,45.625 C303.193436,45.7117027 303.199931,45.8199075 303.26,45.9 L303.23,45.86 Z" id="Shape" fill="#FB5C0F" fill-rule="nonzero"></path>
            <path d="M299.08,39.2 L302.92,46.9 C302.987258,46.6031687 303.144395,46.3342907 303.37,46.13 L303.23,45.86 C303.169931,45.7799075 303.163436,45.6717027 303.213494,45.585 C303.263551,45.4982973 303.360507,45.4498196 303.459904,45.4617949 C303.559301,45.4737703 303.641968,45.543889 303.67,45.64 L303.79,45.88 C304.042665,45.7739253 304.321334,45.7460584 304.59,45.8 L301.31,39.17 C300.571068,39.0437856 299.815269,39.0539533 299.08,39.2 Z" id="Shape" fill="#882D00" fill-rule="nonzero"></path>
            <path d="M300.13,39.86 L307,53.59 C306.72,53.73 306.32,53.5 306.11,53.08 L299.57,39.89 C299.31,39.47 300.13,39.86 300.13,39.86 Z" id="Shape" fill="#FFFFFF" fill-rule="nonzero" opacity="0.38"></path>
            <path d="M323,33.46 L323.07,33.76 C322.802096,33.9040494 322.585474,34.1276588 322.45,34.4 L322.94,36.53 L323.94,40.84 C324.655088,41.1493551 325.408492,41.3612498 326.18,41.47 L324.93,36.33 L324.33,33.71 C324.081024,33.6041303 323.808427,33.5661738 323.54,33.6 L323.48,33.35 C323.470144,33.2780359 323.431709,33.213078 323.373376,33.1697981 C323.315042,33.1265183 323.24173,33.1085674 323.17,33.12 C323.029637,33.1674841 322.953769,33.3192189 323,33.46 Z" id="Shape" fill="#FB5C0F" fill-rule="nonzero"></path>
            <path d="M320.59,26.46 L322.44,34.4 C322.575474,34.1276588 322.792096,33.9040494 323.06,33.76 L322.99,33.46 C322.943769,33.3192189 323.019637,33.1674841 323.16,33.12 C323.23173,33.1085674 323.305042,33.1265183 323.363376,33.1697981 C323.421709,33.213078 323.460144,33.2780359 323.47,33.35 L323.53,33.6 C323.798427,33.5661738 324.071024,33.6041303 324.32,33.71 L322.52,26 C322.41,25.53 321.96,25.46 321.43,25.59 C320.9,25.72 320.48,26 320.59,26.46 Z" id="Shape" fill="#882D00" fill-rule="nonzero"></path>
            <path d="M321.15,25.9 L324.64,41 L324.01,40.74 L320.8,26.86 C320.69,26.4 320.85,25.97 321.15,25.86 L321.15,25.9 Z" id="Shape" fill="#FFFFFF" fill-rule="nonzero" opacity="0.38"></path>
            <path d="M328.91,32.4 L328.91,32.71 C328.620795,32.8076294 328.369153,32.9928655 328.19,33.24 L328.33,35.43 L328.67,41.2 C328.67,41.68 329.14,41.62 329.67,41.58 C330.2,41.54 330.67,41.22 330.61,40.74 L330.3,35.55 L330.14,32.87 C329.908227,32.7251499 329.643028,32.6424906 329.37,32.63 L329.37,32.37 C329.37,32.2208831 329.249117,32.1 329.1,32.1 C328.970565,32.138427 328.889414,32.2665598 328.91,32.4 Z" id="Shape" fill="#FB5C0F" fill-rule="nonzero"></path>
            <path d="M327.69,24.74 L328.21,33.24 C328.389153,32.9928655 328.640795,32.8076294 328.93,32.71 L328.93,32.4 C328.91175,32.2573721 329.008482,32.1254651 329.15,32.1 C329.299117,32.1 329.42,32.2208831 329.42,32.37 L329.42,32.63 C329.693028,32.6424906 329.958227,32.7251499 330.19,32.87 L329.71,25.18 C329.05453,24.9608216 328.377246,24.8132944 327.69,24.74 Z" id="Shape" fill="#882D00" fill-rule="nonzero"></path>
            <path d="M328.37,25.12 L329.37,41.43 C329.06,41.43 328.77,41.43 328.71,39.79 L327.8,25.11 C327.78,24.63 328.37,25.12 328.37,25.12 Z" id="Shape" fill="#FFFFFF" fill-rule="nonzero" opacity="0.38"></path>
            <path d="M210.07,67.07 L210.07,66.85 C209.787922,66.8438635 209.512266,66.7646126 209.27,66.62 L209,65 L208.26,60.82 C208.267956,60.3472349 208.629381,59.955691 209.1,59.91 C209.64,59.81 210.1,59.91 210.18,60.3 L210.92,64.47 L211.27,66.41 C211.067325,66.5778537 210.827232,66.6944699 210.57,66.75 L210.57,66.94 C210.578463,67.0000029 210.561802,67.0608396 210.523947,67.1081578 C210.486093,67.1554759 210.430397,67.1850851 210.37,67.19 C210.254011,67.2388039 210.120334,67.1853333 210.07,67.07 Z" id="Shape" fill="#FB5C0F" fill-rule="nonzero"></path>
            <path d="M209.79,69.79 L209.23,66.62 C209.472266,66.7646126 209.747922,66.8438635 210.03,66.85 L210.03,67.07 C210.06405,67.1907925 210.188646,67.26199 210.31,67.23 C210.370397,67.2250851 210.426093,67.1954759 210.463947,67.1481578 C210.501802,67.1008396 210.518463,67.0400029 210.51,66.98 L210.51,66.79 C210.767232,66.7344699 211.007325,66.6178537 211.21,66.45 L212.02,70.94 C211.224159,70.6684143 210.472737,70.2809095 209.79,69.79 Z" id="Shape" fill="#882D00" fill-rule="nonzero"></path>
            <path d="M210.54,70.19 L208.86,60.82 C208.544223,60.903493 208.350248,61.2209059 208.42,61.54 L209.89,69.77 L210.54,70.19 Z" id="Shape" fill="#FFFFFF" fill-rule="nonzero" opacity="0.38"></path>
            <path d="M200.1,63.82 L200.19,63.68 C199.993403,63.5052897 199.836545,63.2904627 199.73,63.05 L200.38,62.12 L202.53,59.12 C202.734842,60.0537036 202.852017,61.0045004 202.88,61.96 L202.08,63.19 L201.27,64.33 C201.025339,64.2630102 200.792565,64.1584307 200.58,64.02 L200.5,64.13 C200.45,64.2 200.32,64.19 200.21,64.13 C200.1,64.07 200.05,63.88 200.1,63.82 Z" id="Shape" fill="#FB5C0F" fill-rule="nonzero"></path>
            <path d="M196.26,67.91 L199.73,63.05 C199.836545,63.2904627 199.993403,63.5052897 200.19,63.68 L200.1,63.82 C200.1,63.88 200.1,64 200.21,64.08 C200.32,64.16 200.45,64.17 200.5,64.08 L200.58,63.97 C200.792565,64.1084307 201.025339,64.2130102 201.27,64.28 L198.27,68.49 C197.908957,68.7772365 197.426229,68.8602054 196.99,68.71 C196.45,68.58 196.15,68.07 196.26,67.91 Z" id="Shape" fill="#882D00" fill-rule="nonzero"></path>
            <path d="M196.76,68.41 L202.62,60.09 C202.422186,59.8982167 202.107814,59.8982167 201.91,60.09 L196.47,67.79 C196.33,68 196.76,68.41 196.76,68.41 Z" id="Shape" fill="#FFFFFF" fill-rule="nonzero" opacity="0.38"></path>
            <path d="M191,55.45 L191.12,55.29 C190.921688,55.0991985 190.773923,54.8620872 190.69,54.6 L191.5,53.46 L192.79,51.63 C193.727655,51.3457143 194.687777,51.1416463 195.66,51.02 L193.21,54.47 L192.21,55.88 C191.955063,55.8309037 191.711126,55.7360393 191.49,55.6 L191.39,55.73 C191.39,55.82 191.2,55.82 191.09,55.73 C190.996449,55.6705471 190.95861,55.5528267 191,55.45 Z" id="Shape" fill="#FB5C0F" fill-rule="nonzero"></path>
            <path d="M187.78,58.75 L190.71,54.6 C190.793923,54.8620872 190.941688,55.0991985 191.14,55.29 L191.02,55.45 C190.97459,55.5580265 191.017658,55.6829225 191.12,55.74 C191.23,55.82 191.37,55.82 191.42,55.74 L191.52,55.61 C191.741126,55.7460393 191.985063,55.8409037 192.24,55.89 L188.87,60.51 C188.69,60.76 188.28,60.18 188.08,59.84 C187.88,59.5 187.6,59 187.78,58.75 Z" id="Shape" fill="#882D00" fill-rule="nonzero"></path>
            <path d="M188.07,59.46 L193.57,51.63 C193.57,51.63 192.98,51.51 192.8,51.75 L187.93,58.69 C187.845549,58.8103829 187.812823,58.9595706 187.839128,59.1042494 C187.865433,59.2489283 187.948579,59.3770483 188.07,59.46 Z" id="Shape" fill="#FFFFFF" fill-rule="nonzero" opacity="0.38"></path>
            <path d="M197.56,62.39 L197.93,61.91 C197.689364,61.8473089 197.464534,61.7348937 197.27,61.58 C197.042678,61.4018795 196.861007,61.17222 196.74,60.91 L196.34,61.42 C196.306047,61.4554528 196.259088,61.475501 196.21,61.475501 C196.160912,61.475501 196.113953,61.4554528 196.08,61.42 L192.27,66.22 C192.00028,66.6311747 192.101588,67.1817617 192.5,67.47 C192.93,67.81 193.5,67.92 193.72,67.59 L197.64,62.66 C197.591654,62.6367598 197.555385,62.5941662 197.540146,62.5427346 C197.524907,62.491303 197.532118,62.4358262 197.56,62.39 Z" id="Shape" fill="#FD9D6F" fill-rule="nonzero"></path>
            <path d="M201,55.21 L199,57.66 L196.7,60.6 L196.7,60.67 L196.1,61.42 C196.133953,61.4554528 196.180912,61.475501 196.23,61.475501 C196.279088,61.475501 196.326047,61.4554528 196.36,61.42 L196.76,60.91 C196.881007,61.17222 197.062678,61.4018795 197.29,61.58 C197.484534,61.7348937 197.709364,61.8473089 197.95,61.91 L197.58,62.39 C197.511419,62.4630992 197.511419,62.5769008 197.58,62.65 L198.13,61.95 L198.23,61.82 L200.6,58.82 L201.86,57.21 C201.644162,56.5150567 201.355913,55.8447111 201,55.21 Z" id="Shape" fill="#B86966" fill-rule="nonzero"></path>
            <path d="M200.94,56.31 L192.44,67.06 C192.191049,66.8038579 192.191049,66.3961421 192.44,66.14 L200.26,56.26 C200.52,55.94 200.94,56.31 200.94,56.31 Z" id="Shape" fill="#FFFFFF" fill-rule="nonzero" opacity="0.38"></path>
            <path d="M194.62,59.42 L195.03,58.86 C194.474993,58.7661182 194.010987,58.3857861 193.81,57.86 L193.37,58.47 C193.306888,58.5604 193.184613,58.5866017 193.09,58.53 L189.33,63.63 C189.195635,63.8363738 189.149617,64.0880008 189.202242,64.3285721 C189.254867,64.5691435 189.401742,64.7785749 189.61,64.91 C190.05,65.24 190.41,65.52 190.7,65.14 L194.7,59.71 C194.648127,59.6849157 194.609592,59.6386778 194.594269,59.5831326 C194.578947,59.5275874 194.588324,59.4681322 194.62,59.42 Z" id="Shape" fill="#FD9D6F" fill-rule="nonzero"></path>
            <path d="M198.21,51.58 L196.35,54.08 L193.78,57.56 L193.72,57.64 L193.06,58.53 C193.154613,58.5866017 193.276888,58.5604 193.34,58.47 L193.78,57.86 C193.980987,58.3857861 194.444993,58.7661182 195,58.86 L194.59,59.42 C194.513771,59.4977687 194.513771,59.6222313 194.59,59.7 L195.2,58.88 L195.31,58.73 L198,55.19 L199.67,52.93 C199.350959,52.3271067 198.835988,51.8509354 198.21,51.58 Z" id="Shape" fill="#B86966" fill-rule="nonzero"></path>
            <path d="M198.72,52 L189.42,64.6 C189.17,64.41 189.19,63.96 189.47,63.6 L198.1,51.91 C198.38,51.51 198.72,52 198.72,52 Z" id="Shape" fill="#FFFFFF" fill-rule="nonzero" opacity="0.38"></path>
            <path d="M294.18,47.41 L294.18,47.99 C293.954078,47.8835008 293.709461,47.8223466 293.46,47.81 C293.175358,47.7935592 292.890882,47.8449705 292.63,47.96 L292.63,47.34 C292.63014,47.2388503 292.55101,47.1553236 292.45,47.15 L292.73,41.47 C292.73,41.08 293.21,40.78 293.73,40.81 C294.25,40.84 294.73,41.18 294.68,41.57 L294.41,47.25 C294.302543,47.2317511 294.20026,47.3029044 294.18,47.41 Z" id="Shape" fill="#FB5C0F" fill-rule="nonzero"></path>
            <path d="M292.12,53.17 L292.19,51.74 L292.36,48.15 L292.36,48.08 L292.36,47.15 C292.46101,47.1553236 292.54014,47.2388503 292.54,47.34 L292.54,47.96 C292.800882,47.8449705 293.085358,47.7935592 293.37,47.81 C293.619461,47.8223466 293.864078,47.8835008 294.09,47.99 L294.09,47.41 C294.104954,47.3113924 294.190271,47.2388726 294.29,47.24 L294.29,48.09 L294.29,48.25 L294.11,51.9 L294,54.45 C294,54.86 292.12,53.17 292.12,53.17 Z" id="Shape" fill="#882D00" fill-rule="nonzero"></path>
            <path d="M292.77,53.46 L293.37,41.35 C293.202789,41.3602782 293.046558,41.4367314 292.935843,41.5624585 C292.825128,41.6881857 292.769048,41.8528319 292.78,42.02 L292.23,53.02 L292.77,53.46 Z" id="Shape" fill="#FFFFFF" fill-rule="nonzero" opacity="0.38"></path>
            <path d="M318.44,34.46 L318.66,34.86 C318.41689,34.9013615 318.183182,34.9860384 317.97,35.11 C317.722554,35.245146 317.502192,35.4248254 317.32,35.64 L317.08,35.21 C317.01333,35.1546318 316.91667,35.1546318 316.85,35.21 L314.85,31.59 C314.69,31.32 314.96,30.88 315.44,30.59 C315.92,30.3 316.44,30.33 316.58,30.59 L318.58,34.21 C318.44,34.3 318.4,34.39 318.44,34.46 Z" id="Shape" fill="#FB5C0F" fill-rule="nonzero"></path>
            <path d="M319.09,39.26 L318.57,38.36 L317.2,35.89 L316.85,35.25 C316.91667,35.1946318 317.01333,35.1946318 317.08,35.25 L317.32,35.68 C317.502192,35.4648254 317.722554,35.285146 317.97,35.15 C318.183182,35.0260384 318.41689,34.9413615 318.66,34.9 L318.44,34.5 C318.44,34.43 318.44,34.34 318.53,34.28 L318.86,34.87 L318.92,34.97 L320.31,37.49 L321.88,40.22 C320.916582,40.0069176 319.980554,39.6848437 319.09,39.26 Z" id="Shape" fill="#882D00" fill-rule="nonzero"></path>
            <path d="M320,39.56 L315.19,30.89 C315.060835,30.9597589 314.964918,31.0782586 314.923598,31.219122 C314.882278,31.3599854 314.898985,31.5115217 314.97,31.64 L319.18,39.24 L320,39.56 Z" id="Shape" fill="#FFFFFF" fill-rule="nonzero" opacity="0.38"></path>
            <path d="M336.06,32.15 L336.06,32.6 C335.825232,32.5188922 335.578378,32.4783133 335.33,32.48 C335.047077,32.4752129 334.765699,32.5226742 334.5,32.62 L334.5,32.13 C334.5,32.05 334.42,31.99 334.31,31.99 L334.31,27.85 C334.31,27.54 336.31,29.7 336.31,29.7 L336.31,32.01 C336.15,32 336.06,32.07 336.06,32.15 Z" id="Shape" fill="#FB5C0F" fill-rule="nonzero"></path>
            <path d="M334.21,38.47 L334.21,35.61 L334.21,32.78 L334.21,32 C334.32,32 334.4,32.06 334.4,32.14 L334.4,32.63 C334.665699,32.5326742 334.947077,32.4852129 335.23,32.49 C335.478378,32.4883133 335.725232,32.5288922 335.96,32.61 L335.96,32.16 C335.96,32.08 336.05,32.02 336.15,32.02 L336.15,32.81 L336.15,35.69 L336.15,38.5 C336.15,38.81 335.71,39 335.15,39 C334.59,39 334.2,38.78 334.21,38.47 Z" id="Shape" fill="#882D00" fill-rule="nonzero"></path>
            <path d="M334.47,28.71 L334.37,38.21 C334.375341,38.5170399 334.62296,38.764659 334.93,38.77 L335,29 C335,29 334.48,28.4 334.47,28.71 Z" id="Shape" fill="#FFFFFF" fill-rule="nonzero" opacity="0.38"></path>
            <path d="M220.59,60.37 L221.03,60.94 C220.779984,60.9796276 220.543258,61.0791213 220.34,61.23 C220.106671,61.4079625 219.926778,61.6466663 219.82,61.92 L219.36,61.31 C219.296288,61.2136436 219.166716,61.1868355 219.07,61.25 L214.79,55.66 C214.538444,55.2238073 214.650447,54.6686105 215.051438,54.3640603 C215.452429,54.0595102 216.017318,54.1006119 216.37,54.46 L220.64,60.04 C220.579035,60.0682074 220.536303,60.1251357 220.52624,60.1915515 C220.516177,60.2579674 220.540128,60.3249991 220.59,60.37 Z" id="Shape" fill="#FD9D6F" fill-rule="nonzero"></path>
            <path d="M224.45,68.36 L222.5,65.8 L219.8,62.26 L219.74,62.18 L219.05,61.28 C219.146716,61.2168355 219.276288,61.2436436 219.34,61.34 L219.8,61.95 C219.906778,61.6766663 220.086671,61.4379625 220.32,61.26 C220.523258,61.1091213 220.759984,61.0096276 221.01,60.97 L220.57,60.4 C220.530254,60.3622412 220.50775,60.3098223 220.50775,60.255 C220.50775,60.2001777 220.530254,60.1477588 220.57,60.11 L221.21,60.95 L221.33,61.1 L224.08,64.7 L225.6,66.7 C225.264848,67.2852047 224.880103,67.8405747 224.45,68.36 Z" id="Shape" fill="#B86966" fill-rule="nonzero"></path>
            <path d="M224.72,67.61 L215.28,55.23 C215.03,55.42 215.07,55.87 215.36,56.23 L224.36,68.1 L224.72,67.61 Z" id="Shape" fill="#FFFFFF" fill-rule="nonzero" opacity="0.38"></path>
            <path d="M280,45.06 L279.94,45.25 C279.672285,45.207782 279.398423,45.2283216 279.14,45.31 L278.73,46.62 L277.36,51.11 C277.27,51.4 277.63,51.71 278.16,51.87 C278.69,52.03 279.16,51.99 279.25,51.7 L280.57,47.36 L281.08,45.76 C280.885927,45.5879499 280.662325,45.4524338 280.42,45.36 L280.47,45.21 C280.48809,45.0915539 280.408068,44.9804119 280.29,44.96 C280.17,44.92 280,45 280,45.06 Z" id="Shape" fill="#FB5C0F" fill-rule="nonzero"></path>
            <path d="M280.63,40.67 L279.15,45.31 C279.408423,45.2283216 279.682285,45.207782 279.95,45.25 L280.01,45.06 C280.01,44.96 280.17,44.92 280.3,44.96 C280.418068,44.9804119 280.49809,45.0915539 280.48,45.21 L280.43,45.36 C280.672325,45.4524338 280.895927,45.5879499 281.09,45.76 L282,43 C281.714699,42.1345301 281.247584,41.3400933 280.63,40.67 Z" id="Shape" fill="#882D00" fill-rule="nonzero"></path>
            <path d="M280.79,42.15 L278,50.94 C277.71102,50.8531999 277.545926,50.5497854 277.63,50.26 L280.33,41.63 L280.79,42.15 Z" id="Shape" fill="#FFFFFF" fill-rule="nonzero" opacity="0.38"></path>
            <path d="M215.59,64.56 L215.45,64.28 C215.150023,64.3368062 214.839891,64.3019599 214.56,64.18 L213.56,62.18 L211.26,57.67 C211.166671,57.44787 211.169639,57.1969827 211.268197,56.9771226 C211.366755,56.7572625 211.552076,56.5881199 211.78,56.51 C212.27,56.26 212.59,55.91 212.78,56.35 L215.19,61.06 L216.42,63.49 C216.311433,63.7411451 216.125826,63.9512669 215.89,64.09 L216.01,64.33 C216.088735,64.4545058 216.053137,64.6191422 215.93,64.7 C215.79761,64.7447108 215.652522,64.6849686 215.59,64.56 Z" id="Shape" fill="#FB5C0F" fill-rule="nonzero"></path>
            <path d="M218.33,71.56 L214.56,64.18 C214.839891,64.3019599 215.150023,64.3368062 215.45,64.28 L215.59,64.56 C215.649726,64.6990905 215.809182,64.7655303 215.95,64.71 C216.073137,64.6291422 216.108735,64.4645058 216.03,64.34 L215.91,64.1 C216.145826,63.9612669 216.331433,63.7511451 216.44,63.5 L220.32,71.11 C219.694646,71.3951804 219.017212,71.5483691 218.33,71.56 Z" id="Shape" fill="#882D00" fill-rule="nonzero"></path>
            <path d="M218.94,71.34 L211.52,56.76 C211.24,56.9 211.19,57.36 211.41,57.76 L218.21,71.1 C218.43,71.56 218.94,71.34 218.94,71.34 Z" id="Shape" fill="#FFFFFF" fill-rule="nonzero" opacity="0.38"></path>
            <path d="M379.1,23.28 C376.6829,22.0003904 373.835087,21.8112637 371.27,22.76 C365.05,24.82 362.94,30.95 364.78,36.52 C366.62,42.09 371.97,45.74 378.19,43.68 C380.532834,42.9095419 382.641942,41.5573732 384.32,39.75 L381.64,31.65 L375.87,33.57 L375.12,31.31 L383.35,28.58 L387.28,40.44 C385.013184,42.9507142 382.142363,44.8404989 378.94,45.93 C375.580972,47.1265909 371.87789,46.8908989 368.697672,45.2781012 C365.517454,43.6653035 363.139318,40.8170006 362.12,37.4 C360.896009,34.0497273 361.102349,30.3437039 362.690685,27.1500123 C364.279022,23.9563207 367.109818,21.5555333 370.52,20.51 C374.35,19.24 377.52,19.42 380.34,20.86 L379.1,23.28 Z" id="Shape" fill="#CC3399" fill-rule="nonzero"></path>
            <path d="M402.3,28.35 L402.21,27.93 C401.61,25.08 399.95,23.93 397.09,24.55 C395.219624,24.9206537 393.562558,25.9943468 392.46,27.55 L390.7,26.19 C391.89,24.32 394.08,22.98 397.18,22.33 C400.28,21.68 403.59,22.91 404.43,26.93 L406,34.28 C406.24876,35.5149977 406.582896,36.7312506 407,37.92 L404.74,38.4 C404.411747,37.542478 404.154221,36.6595312 403.97,35.76 L403.9,35.76 C403.154969,38.0754461 401.141718,39.7538046 398.73,40.07 C395.81,40.68 392.73,39.63 392.05,36.43 C390.93,31.07 397.17,29.43 401.12,28.58 L402.3,28.35 Z M401.5,30.51 C399.14,31 393.85,32.29 394.5,35.6 C394.96,37.78 397.14,38.21 399.01,37.82 C402.39,37.12 403.52,34.38 402.9,31.46 L402.65,30.26 L401.5,30.51 Z" id="Shape" fill="#CC3399" fill-rule="nonzero"></path>
            <path d="M411.66,9.82 L414.04,9.82 L414.17,23 L414.24,23 C415.761179,20.921373 418.184218,19.6949882 420.76,19.7 C423.14681,19.5773919 425.477196,20.4523786 427.193493,22.1155745 C428.90979,23.7787705 429.85756,26.080516 429.81,28.47 C429.902819,30.8577752 428.99914,33.17673 427.315152,34.8720969 C425.631163,36.5674637 423.318346,37.4867379 420.93,37.41 C418.35237,37.4722959 415.902723,36.2884239 414.35,34.23 L414.28,34.23 L414.28,37.04 L411.91,37.04 L411.66,9.82 Z M420.78,21.82 C418.327483,21.7520767 416.033983,23.0300808 414.801401,25.1514468 C413.568818,27.2728127 413.594308,29.8982249 414.867845,31.9952596 C416.141383,34.0922943 418.459264,35.3255277 420.91,35.21 C424.83,35.21 427.25,32.21 427.22,28.45 C427.19,24.69 424.7,21.79 420.78,21.83 L420.78,21.82 Z" id="Shape" fill="#CC3399" fill-rule="nonzero"></path>
            <path d="M436.16,26.64 C436.49,25.16 436.7,23.88 437.16,21.47 L439.45,21.98 L438.76,25 L438.83,25 C440.134184,23.03072 442.54024,22.1003783 444.83,22.68 C445.414583,22.7980523 445.97997,22.9966105 446.51,23.27 L445.51,25.46 C445.109837,25.2234888 444.668892,25.0640702 444.21,24.99 C442.828634,24.7147802 441.39458,25.0039844 440.227853,25.7930752 C439.061126,26.5821661 438.258829,27.8054697 438,29.19 L436,38.47 L433.67,38 L436.16,26.64 Z" id="Shape" fill="#CC3399" fill-rule="nonzero"></path>
            <path d="M448.25,41.74 L446,41.06 L450.82,24.91 L453.1,25.59 L448.25,41.74 Z M453.25,20.74 C452.578881,20.5403531 452.094279,19.9558581 452.022418,19.2593702 C451.950556,18.5628824 452.305607,17.8917545 452.921823,17.5592842 C453.53804,17.2268139 454.2939,17.2985668 454.836551,17.741047 C455.379203,18.1835273 455.60163,18.9094744 455.4,19.58 C455.100458,20.4499662 454.1784,20.9394 453.29,20.7 L453.25,20.74 Z" id="Shape" fill="#CC3399" fill-rule="nonzero"></path>
            <path d="M458.42,36.9 C457.604616,39.5245576 458.587591,42.374618 460.847552,43.9385015 C463.107512,45.502385 466.12114,45.4179577 468.29,43.73 L469.51,45.73 C467.151168,47.3169123 464.169965,47.6634772 461.51,46.66 C459.281766,45.915818 457.457896,44.2875913 456.466724,42.1577057 C455.475552,40.0278201 455.404408,37.583938 456.27,35.4 C456.95511,33.1812499 458.518128,31.3393877 460.595847,30.3024168 C462.673567,29.2654459 465.085076,29.1236576 467.27,29.91 C472.08,31.65 473.59,36.2 472.05,40.54 L471.68,41.54 L458.42,36.9 Z M469.85,38.9 C470.428037,37.5482996 470.39216,36.0124714 469.751638,34.6892362 C469.111115,33.366001 467.928765,32.3851326 466.51,32 C463.59,31 460.07,32.5 459.14,35.11 L469.85,38.9 Z" id="Shape" fill="#CC3399" fill-rule="nonzero"></path>
            <polygon id="Shape" fill="#CC3399" fill-rule="nonzero" points="478.06 51.51 475.76 50.9 482.68 24.58 484.97 25.18"></polygon>
            <polygon id="Shape" fill="#CC3399" fill-rule="nonzero" points="488.58 53.72 486.24 53.29 491.07 26.51 493.41 26.93"></polygon>
            <path d="M508.24,45.53 L508.24,45.1 C508.45,42.19 507.15,40.65 504.24,40.44 C502.359164,40.2811664 500.487705,40.8383182 499,42 L497.69,40.21 C499.35,38.74 501.81,38.05 504.97,38.28 C508.13,38.51 510.97,40.6 510.68,44.69 L510.13,52.19 C510.049011,53.4520353 510.049011,54.7179647 510.13,55.98 L507.84,55.82 C507.759769,54.9050889 507.759769,53.9849111 507.84,53.07 L507.77,53.07 C506.412476,55.0880779 504.015944,56.1462867 501.61,55.79 C498.61,55.58 495.95,53.72 496.19,50.46 C496.59,45 503.04,45.11 507.06,45.4 L508.24,45.53 Z M506.88,47.38 C504.47,47.2 499.04,46.99 498.79,50.38 C498.63,52.61 500.61,53.62 502.52,53.76 C505.96,54.01 507.79,51.69 508.01,48.71 L508.1,47.49 L506.88,47.38 Z" id="Shape" fill="#CC3399" fill-rule="nonzero"></path>
            <polygon id="Shape" fill="#CC3399" fill-rule="nonzero" points="542.3 50.65 549.65 29.45 553.65 29.21 555.16 54.65 552.57 54.81 551.26 32.81 551.19 32.81 543.3 55.35 541.93 55.43 531.39 34 531.32 34 532.62 56 530.04 56.15 528.52 30.7 532.52 30.47"></polygon>
            <path d="M562.19,32.11 C561.493626,32.1871735 560.819462,31.8367053 560.482567,31.2223805 C560.145672,30.6080556 560.212574,29.8511878 560.652008,29.3054855 C561.091442,28.7597832 561.816631,28.5330089 562.48867,28.7311415 C563.160709,28.9292741 563.646888,29.5131874 563.72,30.21 C563.808184,31.1530124 563.130125,31.9950469 562.19,32.11 Z M565.64,53.46 L563.28,53.71 L561.51,37 L563.87,36.75 L565.64,53.46 Z" id="Shape" fill="#CC3399" fill-rule="nonzero"></path>
            <polygon id="Shape" fill="#CC3399" fill-rule="nonzero" points="575.41 52.3 573.05 52.6 569.64 25.6 571.99 25.31"></polygon>
            <polygon id="Shape" fill="#CC3399" fill-rule="nonzero" points="585.2 50.92 582.85 51.28 578.85 24.37 581.2 24.02"></polygon>
            <path d="M592.46,41.75 C593.00398,44.4455073 595.235872,46.4751954 597.970775,46.7615128 C600.705679,47.0478302 603.309547,45.5243984 604.4,43 L606.46,44.2 C605.154205,46.7319961 602.701086,48.4730398 599.88,48.87 C597.56912,49.2831984 595.189953,48.7292119 593.299299,47.3376911 C591.408646,45.9461702 590.172443,43.839244 589.88,41.51 C589.420695,39.2381394 589.907935,36.8772248 591.229128,34.9728193 C592.550321,33.0684139 594.591144,31.7853067 596.88,31.42 C601.94,30.64 605.45,33.91 606.18,38.42 L606.35,39.48 L592.46,41.75 Z M603.46,38.02 C603.321296,36.5505624 602.551577,35.2136892 601.350402,34.3559809 C600.149226,33.4982727 598.634889,33.2041982 597.2,33.55 C594.14,34.04 591.78,37.08 592.2,39.82 L603.46,38.02 Z" id="Shape" fill="#CC3399" fill-rule="nonzero"></path>
            <path d="M611.63,35.28 C611.52,33.78 611.34,32.49 611.08,30.06 L613.41,29.87 L613.66,33 L613.73,33 C614.389738,30.7023448 616.45115,29.0887153 618.84,29 C619.430805,28.9424777 620.026793,28.969415 620.61,29.08 L620.33,31.45 C619.878433,31.3413745 619.411094,31.3142823 618.95,31.37 C617.543427,31.4938981 616.245084,32.1760255 615.345018,33.2639962 C614.444953,34.351967 614.018166,35.7551223 614.16,37.16 L614.9,46.64 L612.53,46.82 L611.63,35.28 Z" id="Shape" fill="#CC3399" fill-rule="nonzero"></path>
            <path d="M179.8,155.52 C193.44,131.07 190.22,102.45 178.61,76.2 C198.87,91.23 204.89,137 196,163 C188,186.21 165.38,181.36 179.8,155.52 Z" id="Shape" fill="#DFDFDF" fill-rule="nonzero"></path>
            <path d="M38.6,196.46 C21.38,185 9.24,167.66 3.38,147.91 C31.33,152.05 42.63,169.8 38.6,196.46 Z" id="Shape" fill="#DFDFDF" fill-rule="nonzero"></path>
            <path d="M57.87,48.69 C36.37,57.47 23.87,78.88 19.7,101.36 C16.18,120.36 4.05,116.36 -3.55271368e-15,118.66 C3.28,91.77 24.47,51.28 57.87,48.69 Z" id="Shape" fill="#DFDFDF" fill-rule="nonzero"></path>
            <path d="M124.5,195.18 C124.4,208.27 116.86,225.51 125.13,232.39 C131.49,237.68 137.83,222.85 144.13,211.97 C151.36,199.53 155.06,202.18 170.18,200.8 C205.29,197.59 198.08,188.15 180.54,185.21 C173.99,184.12 164.42,182.69 160,173.07 C155.81,163.95 160.28,155.32 167.29,145.39 C176.78,131.93 179.49,124.21 158.72,136.02 C137.33,148.18 136.17,151.31 113.72,139.54 C83.57,123.74 92.72,139.81 106.49,153.32 C117.47,164.09 124.63,179.55 124.5,195.18 Z" id="Shape" fill="#0D99B7"></path>
            <path d="M39.84,89.35 C49.76,85 65.31,87 67.6,74.45 C76.23,80.69 71.76,101.6 52.34,110.89 C36.82,118.31 24.65,96 39.84,89.35 Z" id="Shape" fill="#CC3399"></path>
            <path d="M96.78,184.91 C83.41,155.67 77.61,135.48 90.78,104.65 C106.49,67.71 97.22,73.52 79,97.13 C62.9,118 43,119.7 13,126.22 C-5,130.12 -4.77,137.43 19.55,138.46 C47.37,139.63 52.94,158.69 52.14,182.63 C51.9674149,190.64923 50.5539995,198.593366 47.95,206.18 C38.95,231.06 50.17,228.89 59.14,216.32 C63.6,210.06 67.59,203.01 69.58,194.92 C73.64,178.47 78.13,182.78 85.38,193.71 C110.4,231.5 106.5,206.17 96.78,184.91 Z" id="Shape" fill="#CC3399"></path>
            <path d="M125.28,137.3 C120.05,131.55 120.99,119.09 126.84,113.77 C134.29,106.98 140.84,107.77 144.97,111.85 C159.18,126.1 136.73,149.88 125.28,137.3 Z" id="Shape" fill="#0D99B7"></path>
            <path d="M645.75,186.85 C645.75,195.22 638.26,202.06 629.11,202.06 L227.37,202.06 C218.22,202.06 210.73,195.22 210.73,186.85 C210.73,178.48 218.22,171.65 227.37,171.65 L629.11,171.65 C638.26,171.65 645.75,178.49 645.75,186.85 Z" id="Shape" fill="#CC3399" fill-rule="nonzero"></path>
            <path d="M225.51,180.05 L230.75,180.05 C233.75,180.05 236.49,181 236.49,184.11 C236.49,187.64 233.57,188.27 230.27,188.27 L228.27,188.27 L228.27,194.08 L225.49,194.08 L225.51,180.05 Z M229.96,186.13 C231.54,186.13 233.59,186.06 233.59,184.13 C233.59,182.41 231.76,182.13 230.27,182.13 L228.27,182.13 L228.27,186.07 L229.96,186.13 Z" id="Shape" fill="#FFFFFF" fill-rule="nonzero"></path>
            <polygon id="Shape" fill="#FFFFFF" fill-rule="nonzero" points="241.15 180.05 251.47 180.05 251.47 182.31 243.93 182.31 243.93 185.76 251.08 185.76 251.08 188 243.93 188 243.93 191.8 251.87 191.8 251.87 194.06 241.15 194.06"></polygon>
            <path d="M256.8,180.05 L262.93,180.05 C267.03,180.05 270.86,182.31 270.86,187.05 C270.86,191.79 266.35,194.05 262.6,194.05 L256.8,194.05 L256.8,180.05 Z M261.64,191.82 C265.11,191.82 267.95,190.47 267.95,187.07 C267.95,183.67 265.49,182.31 262.1,182.31 L259.57,182.31 L259.57,191.82 L261.64,191.82 Z" id="Shape" fill="#FFFFFF" fill-rule="nonzero"></path>
            <polygon id="Shape" fill="#FFFFFF" fill-rule="nonzero" points="275.63 180.05 278.4 180.05 278.4 194.05 275.63 194.05"></polygon>
            <path d="M289.05,180.05 L291.45,180.05 L298.16,194.05 L295,194.05 L293.55,190.84 L286.79,190.84 L285.38,194.05 L282.28,194.05 L289.05,180.05 Z M292.57,188.73 L290.17,183.03 L287.73,188.73 L292.57,188.73 Z" id="Shape" fill="#FFFFFF" fill-rule="nonzero"></path>
            <polygon id="Shape" fill="#FFFFFF" fill-rule="nonzero" points="303.26 182.31 298.49 182.31 298.49 180.05 310.81 180.05 310.81 182.31 306 182.31 306 194.08 303.23 194.08"></polygon>
            <path d="M314.9,180.05 L320.31,180.05 C323.31,180.05 326.12,180.93 326.12,184.05 C326.159465,186.092905 324.552064,187.789358 322.51,187.86 L326.65,194.06 L323.3,194.06 L319.7,188.12 L317.7,188.12 L317.7,194.06 L314.9,194.06 L314.9,180.05 Z M319.83,186 C321.39,186 323.22,185.88 323.22,184.06 C323.22,182.24 321.5,182.19 320.07,182.19 L317.67,182.19 L317.67,186 L319.83,186 Z" id="Shape" fill="#FFFFFF" fill-rule="nonzero"></path>
            <polygon id="Shape" fill="#FFFFFF" fill-rule="nonzero" points="330.89 180.05 333.66 180.05 333.66 194.05 330.89 194.05"></polygon>
            <path d="M350,183.34 C349.145473,182.444865 347.95744,181.945022 346.72,181.96 C344.818077,181.840955 343.007408,182.788045 342.020407,184.418171 C341.033406,186.048298 341.033406,188.091702 342.020407,189.721829 C343.007408,191.351955 344.818077,192.299045 346.72,192.18 C348.083678,192.162066 349.367745,191.534708 350.22,190.47 L352.51,191.94 C351.059776,193.619959 348.916676,194.53843 346.7,194.43 C341.9,194.43 338.47,191.5 338.47,187.12 C338.47,182.74 341.9,179.7 346.7,179.7 C348.75249,179.615527 350.740723,180.425412 352.15,181.92 L350,183.34 Z" id="Shape" fill="#FFFFFF" fill-rule="nonzero"></path>
            <path d="M365.26,180.05 L370.67,180.05 C373.67,180.05 376.48,180.93 376.48,184.05 C376.519465,186.092905 374.912064,187.789358 372.87,187.86 L377.01,194.06 L373.66,194.06 L370.05,188.12 L368.05,188.12 L368.05,194.06 L365.28,194.06 L365.26,180.05 Z M370.18,186 C371.75,186 373.57,185.88 373.57,184.06 C373.57,182.24 371.86,182.19 370.43,182.19 L368,182.19 L368,186 L370.18,186 Z" id="Shape" fill="#FFFFFF" fill-rule="nonzero"></path>
            <polygon id="Shape" fill="#FFFFFF" fill-rule="nonzero" points="381.32 180.05 391.64 180.05 391.64 182.31 384.09 182.31 384.09 185.76 391.24 185.76 391.24 188 384.09 188 384.09 191.8 392 191.8 392 194.06 381.32 194.06"></polygon>
            <path d="M404.59,183.07 C403.894267,182.306792 402.890917,181.898836 401.86,181.96 C400.59,181.96 399.31,182.47 399.31,183.76 C399.31,186.57 406.7,184.97 406.7,189.96 C406.7,192.96 404.06,194.43 401.01,194.43 C399.116594,194.534624 397.265113,193.846206 395.9,192.53 L397.99,190.71 C398.727533,191.658132 399.869007,192.202926 401.07,192.18 C402.35,192.18 403.8,191.54 403.8,190.25 C403.8,187.18 396.41,188.95 396.41,183.94 C396.41,181.04 399.27,179.7 402.15,179.7 C403.76337,179.636555 405.347047,180.146734 406.62,181.14 L404.59,183.07 Z" id="Shape" fill="#FFFFFF" fill-rule="nonzero"></path>
            <polygon id="Shape" fill="#FFFFFF" fill-rule="nonzero" points="411.78 180.05 422.1 180.05 422.1 182.31 414.56 182.31 414.56 185.76 421.71 185.76 421.71 188 414.56 188 414.56 191.8 422.5 191.8 422.5 194.06 411.78 194.06"></polygon>
            <path d="M432.47,180.05 L434.86,180.05 L441.57,194.05 L438.41,194.05 L437,190.87 L430.2,190.87 L428.79,194.08 L425.69,194.08 L432.47,180.05 Z M435.99,188.73 L433.59,183.03 L431.14,188.73 L435.99,188.73 Z" id="Shape" fill="#FFFFFF" fill-rule="nonzero"></path>
            <path d="M445.51,180.05 L450.92,180.05 C453.92,180.05 456.73,180.93 456.73,184.05 C456.769465,186.092905 455.162064,187.789358 453.12,187.86 L457.26,194.06 L453.92,194.06 L450.31,188.12 L448.31,188.12 L448.31,194.06 L445.54,194.06 L445.51,180.05 Z M450.44,186 C452,186 453.83,185.88 453.83,184.06 C453.83,182.24 452.11,182.19 450.68,182.19 L448.28,182.19 L448.28,186 L450.44,186 Z" id="Shape" fill="#FFFFFF" fill-rule="nonzero"></path>
            <path d="M472.26,183.34 C471.404764,182.46267 470.225007,181.977739 469,182 C466.177825,182 463.89,184.287825 463.89,187.11 C463.89,189.932175 466.177825,192.22 469,192.22 C470.364689,192.206326 471.650484,191.578123 472.5,190.51 L474.79,191.98 C473.339776,193.659959 471.196676,194.57843 468.98,194.47 C464.19,194.47 460.75,191.54 460.75,187.16 C460.75,182.78 464.19,179.74 468.98,179.74 C471.035461,179.655254 473.026873,180.464949 474.44,181.96 L472.26,183.34 Z" id="Shape" fill="#FFFFFF" fill-rule="nonzero"></path>
            <polygon id="Shape" fill="#FFFFFF" fill-rule="nonzero" points="478.84 180.05 481.61 180.05 481.61 185.64 488.9 185.64 488.9 180.05 491.67 180.05 491.67 194.05 488.9 194.05 488.9 187.9 481.61 187.9 481.61 194.08 478.84 194.08"></polygon>
            <path d="M506.05,180.05 L511.29,180.05 C514.29,180.05 517.03,181 517.03,184.11 C517.03,187.64 514.11,188.27 510.81,188.27 L508.81,188.27 L508.81,194.08 L506.03,194.08 L506.05,180.05 Z M510.5,186.13 C512.08,186.13 514.13,186.06 514.13,184.13 C514.13,182.41 512.3,182.13 510.81,182.13 L508.81,182.13 L508.81,186.07 L510.5,186.13 Z" id="Shape" fill="#FFFFFF" fill-rule="nonzero"></path>
            <path d="M521.69,180.05 L527.11,180.05 C530.11,180.05 532.92,180.93 532.92,184.05 C532.959465,186.092905 531.352064,187.789358 529.31,187.86 L533.44,194.06 L530.1,194.06 L526.49,188.12 L524.49,188.12 L524.49,194.06 L521.71,194.06 L521.69,180.05 Z M526.62,186 C528.19,186 530.01,185.88 530.01,184.06 C530.01,182.24 528.3,182.19 526.87,182.19 L524.47,182.19 L524.47,186 L526.62,186 Z" id="Shape" fill="#FFFFFF" fill-rule="nonzero"></path>
            <path d="M545.15,179.7 C550.01,179.62 553.44,182.55 553.44,187.05 C553.44,191.55 550.01,194.35 545.15,194.43 C540.29,194.51 536.92,191.5 536.92,187.12 C536.92,182.74 540.35,179.7 545.15,179.7 Z M545.15,192.18 C547.051923,192.299045 548.862592,191.351955 549.849593,189.721829 C550.836594,188.091702 550.836594,186.048298 549.849593,184.418171 C548.862592,182.788045 547.051923,181.840955 545.15,181.96 C543.248077,181.840955 541.437408,182.788045 540.450407,184.418171 C539.463406,186.048298 539.463406,188.091702 540.450407,189.721829 C541.437408,191.351955 543.248077,192.299045 545.15,192.18 Z" id="Shape" fill="#FFFFFF" fill-rule="nonzero"></path>
            <path d="M572.12,193.05 C570.102069,193.991983 567.896709,194.463827 565.67,194.43 C560.88,194.43 557.44,191.5 557.44,187.12 C557.44,182.74 560.88,179.7 565.67,179.7 C567.858097,179.563739 570.026359,180.185261 571.81,181.46 L569.81,183.32 C568.639015,182.408173 567.182936,181.940527 565.7,182 C563.798077,181.880955 561.987408,182.828045 561.000407,184.458171 C560.013406,186.088298 560.013406,188.131702 561.000407,189.761829 C561.987408,191.391955 563.798077,192.339045 565.7,192.22 C566.957597,192.259813 568.20721,192.006467 569.35,191.48 L569.35,188.18 L566.16,188.18 L566.16,185.92 L572.16,185.92 L572.12,193.05 Z" id="Shape" fill="#FFFFFF" fill-rule="nonzero"></path>
            <path d="M577.6,180.05 L583,180.05 C586,180.05 588.81,180.93 588.81,184.05 C588.849465,186.092905 587.242064,187.789358 585.2,187.86 L589.34,194.06 L586,194.06 L582.39,188.12 L580.39,188.12 L580.39,194.06 L577.6,194.06 L577.6,180.05 Z M582.52,186 C584.09,186 585.91,185.88 585.91,184.06 C585.91,182.24 584.2,182.19 582.77,182.19 L580.37,182.19 L580.37,186 L582.52,186 Z" id="Shape" fill="#FFFFFF" fill-rule="nonzero"></path>
            <path d="M598.69,180.05 L601.09,180.05 L607.8,194.05 L604.64,194.05 L603.18,190.84 L596.43,190.84 L595,194.08 L591.9,194.08 L598.69,180.05 Z M602.22,188.73 L599.82,183.03 L597.37,188.73 L602.22,188.73 Z" id="Shape" fill="#FFFFFF" fill-rule="nonzero"></path>
            <polygon id="Shape" fill="#FFFFFF" fill-rule="nonzero" points="611.81 180.05 616 180.05 620.16 189.88 624.36 180.05 628.54 180.05 628.54 194.05 625.9 194.05 625.9 182.43 625.9 182.43 621.17 194.08 619.23 194.08 614.5 182.43 614.5 182.43 614.5 194.08 611.86 194.08"></polygon>
            <path d="M234.46,86.58 C234.7,90.02 234.83,93.58 234.87,97.35 C234.91,101.12 234.87,105.49 234.82,110.52 C234.77,115.55 234.7,119.13 234.7,121.24 C234.7,123.35 234.7,126.14 234.82,129.84 C234.94,133.54 234.93,136.15 234.93,137.63 C235.047346,143.216439 234.853713,148.805079 234.35,154.37 C234.26832,155.162552 233.863064,155.886223 233.23,156.37 C232.620271,156.882503 231.831761,157.131494 231.038281,157.062087 C230.2448,156.992681 229.511493,156.610576 229,156 C228.461607,155.369395 228.208221,154.544079 228.3,153.72 C228.807139,148.402669 229.000807,143.060094 228.88,137.72 C228.88,136.31 228.88,133.72 228.77,129.99 C228.66,126.26 228.65,123.36 228.65,121.33 C228.65,119.143333 228.69,115.59 228.77,110.67 C228.85,105.75 228.87,101.456667 228.83,97.79 C228.79,94.13 228.653333,90.58 228.42,87.14 C228.321452,86.3336037 228.576726,85.5240201 229.12,84.92 C229.648862,84.2930887 230.411338,83.910044 231.23,83.86 C232.037244,83.77072 232.844378,84.0288574 233.45,84.57 C234.034624,85.0836411 234.396777,85.8043611 234.46,86.58 Z M276.26,83 C273.890542,85.8493806 271.266358,88.4769119 268.42,90.85 C266.520043,92.3546019 264.514929,93.7214207 262.42,94.94 L254.22,100.45 C251.698699,102.096944 249.293077,103.914524 247.02,105.89 C245.34,107.41 244.46,108.41 244.39,108.89 C244.480682,109.273159 244.682446,109.621027 244.97,109.89 C245.759347,110.897814 246.708607,111.769376 247.78,112.47 C248.56,113.09 249.846667,113.986667 251.64,115.16 L255.04,117.62 C258.546667,120.74 263.546667,125.74 270.04,132.62 C276.213333,139.18 281.093333,144.02 284.68,147.14 C285.294137,147.67767 285.671435,148.43586 285.73,149.25 C285.828548,150.056396 285.573274,150.86598 285.03,151.47 C284.496111,152.090505 283.736524,152.472098 282.92,152.53 C282.112627,152.620574 281.304976,152.362272 280.7,151.82 C277.033333,148.62 272.033333,143.62 265.7,136.82 C259.366667,130.02 254.49,125.18 251.07,122.3 C250.191619,121.555015 249.251577,120.885946 248.26,120.3 L244.04,117.37 C242.589325,116.304572 241.290697,115.046316 240.18,113.63 C238.799252,112.144153 238.118847,110.139323 238.31,108.12 C238.536667,106.166667 240.056667,103.903333 242.87,101.33 C245.384855,99.1352052 248.058838,97.1297178 250.87,95.33 L259.19,89.83 C262.39,87.72 264.19,86.48 264.69,86.08 C267.16902,83.9045884 269.472813,81.5372654 271.58,79 C272.120429,78.402363 272.87539,78.0428579 273.68,78 C274.48886,77.9076593 275.299015,78.1619682 275.91,78.7 C276.505598,79.2461171 276.864412,80.0032143 276.91,80.81 C277.013228,81.5991083 276.77701,82.3949809 276.26,83 Z" id="Shape" stroke="#2E3191" stroke-width="0.81" fill="#2B388F" fill-rule="nonzero"></path>
            <path d="M300.85,107.42 C300.77,108.52 300.3,114.59 299.44,125.63 C298.58,136.67 298.15,145.08 298.15,150.86 C298.15,152.516854 296.806854,153.86 295.15,153.86 C294.345723,153.873406 293.569753,153.563264 292.996283,152.999196 C292.422813,152.435127 292.099888,151.664389 292.1,150.86 C292.1,146.566667 292.256667,141.96 292.57,137.04 C292.883333,132.12 293.293333,126.716667 293.8,120.83 C294.306667,114.943333 294.64,110.316667 294.8,106.95 C294.893448,106.1773 295.267036,105.465704 295.85,104.95 C296.42544,104.388372 297.219888,104.110132 298.02,104.19 C298.829474,104.262912 299.580594,104.642048 300.12,105.25 C300.667183,105.83284 300.933651,106.624944 300.85,107.42 Z M298.45,86.52 C299.537757,87.559595 299.735157,89.2246979 298.920628,90.4898121 C298.106098,91.7549262 296.508613,92.2644121 295.112025,91.7044896 C293.715437,91.1445671 292.912344,89.6726375 293.197352,88.1952267 C293.48236,86.717816 294.77535,85.6502429 296.28,85.65 C297.09122,85.6346241 297.874076,85.948488 298.45,86.52 Z" id="Shape" stroke="#2E3191" stroke-width="0.81" fill="#2B388F" fill-rule="nonzero"></path>
            <path d="M358.21,81.08 C358.443333,84.12 358.64,88.8433333 358.8,95.25 C358.946667,102.736667 359.063333,107.34 359.15,109.06 C359.543333,117.1 359.66,124.553333 359.5,131.42 C359.51022,135.807195 359.19603,140.189142 358.56,144.53 C358.388862,146.281604 358.036989,148.010807 357.51,149.69 C357.097479,151.234639 356.242411,152.624994 355.05,153.69 C353.096667,155.17 350.13,155.716667 346.15,155.33 C342.644123,154.907925 339.192008,154.120307 335.85,152.98 C332.396667,151.867959 329.030734,150.500862 325.78,148.89 C323.32622,147.785109 321.072387,146.281427 319.11,144.44 C316.605279,141.794555 314.875647,138.511712 314.11,134.95 C313.298548,131.456975 313.17964,127.838766 313.76,124.3 C314.32131,120.950453 315.408026,117.710553 316.98,114.7 C317.76,113.22 318.42,112.05 318.98,111.19 C319.54,110.33 320.29,109.26 321.26,107.97 C322.204516,106.713394 323.353925,105.624836 324.66,104.75 C325.976096,103.874949 327.41523,103.200882 328.93,102.75 C333.383333,101.416667 340.876667,101.103333 351.41,101.81 C351.905727,101.875076 352.384373,102.034624 352.82,102.28 L352.82,95.36 C352.66,89.74 352.423333,85.2133333 352.11,81.78 C352.020958,80.9544945 352.278019,80.1290026 352.82,79.5 C353.601361,78.5684217 354.860137,78.1878317 356.026747,78.5304423 C357.193358,78.8730528 358.046446,79.8738558 358.2,81.08 L358.21,81.08 Z M351.3,148.87 C351.482621,148.490934 351.639639,148.100059 351.77,147.7 C352.160565,146.393409 352.434965,145.054875 352.59,143.7 C353.139137,139.586185 353.41308,135.440303 353.41,131.29 C353.57,124.416667 353.453333,117.083333 353.06,109.29 C353.05754,108.62161 353.017476,107.953889 352.94,107.29 C352.389145,107.765028 351.660483,107.979983 350.94,107.88 C341.18,107.26 334.39,107.493333 330.57,108.58 C328.887974,109.080279 327.398432,110.081447 326.3,111.45 C324.804272,113.3199 323.49158,115.329123 322.38,117.45 C320.318666,121.08057 319.323868,125.21921 319.51,129.39 C319.432744,133.356772 320.862114,137.205352 323.51,140.16 C325.063441,141.536131 326.821019,142.66287 328.72,143.5 C331.611308,144.947599 334.62256,146.142063 337.72,147.07 C340.628758,148.117495 343.648769,148.82552 346.72,149.18 C349,149.45 350.52,149.33 351.3,148.87 Z" id="Shape" stroke="#2E3191" stroke-width="0.81" fill="#2B388F" fill-rule="nonzero"></path>
            <path d="M400.82,113.63 C397.116149,111.780111 393.181143,110.43481 389.12,109.63 C384.9,109.076667 381.933333,110.05 380.22,112.55 C379.8482,112.961181 379.604865,113.472184 379.52,114.02 C379.573542,114.570729 379.729554,115.106598 379.98,115.6 C380.394094,116.33596 380.865554,117.038134 381.39,117.7 C381.93,118.41 382.39,118.99 382.85,119.46 C383.51151,120.119034 384.238619,120.708762 385.02,121.22 L387.02,122.74 L389.59,124.38 C390.92,125.31 391.78,125.9 392.17,126.13 C393.979867,127.318416 395.719442,128.610576 397.38,130 C398.988217,131.469137 400.387863,133.151404 401.54,135 C402.928565,137.113281 403.846007,139.500677 404.23,142 C404.616667,144.813333 403.366667,147.193333 400.48,149.14 C398.133695,150.568107 395.559649,151.582842 392.87,152.14 C390.168371,152.858856 387.407024,153.330796 384.62,153.55 C382.459754,153.78589 380.280246,153.78589 378.12,153.55 C375.801434,152.843055 373.532991,151.981114 371.33,150.97 C370.580822,150.616254 369.994434,149.990535 369.69,149.22 C369.379037,148.487142 369.400922,147.655488 369.75,146.94 C370.087749,146.208669 370.697742,145.638145 371.45,145.35 C372.157381,145.039273 372.962619,145.039273 373.67,145.35 C375.479449,146.212985 377.359696,146.918914 379.29,147.46 C380.975565,147.71729 382.688839,147.737486 384.38,147.52 C386.747514,147.336498 389.091747,146.924582 391.38,146.29 C393.399367,145.860464 395.337128,145.111016 397.12,144.07 C397.9,143.523333 398.25,143.133333 398.17,142.9 C397.828227,140.591219 396.855859,138.421559 395.36,136.63 C393.446405,134.514481 391.240864,132.682703 388.81,131.19 C388.49,130.95 387.71,130.43 386.46,129.61 C385.21,128.79 384.3,128.2 383.71,127.85 C382.839257,127.295386 382.001201,126.691051 381.2,126.04 C380.282032,125.344586 379.41944,124.578952 378.62,123.75 C377.99,123.09 377.29,122.27 376.51,121.3 C375.790735,120.409382 375.164161,119.447741 374.64,118.43 C373.838789,116.959136 373.435489,115.304571 373.47,113.63 C373.693055,111.972027 374.336823,110.398755 375.34,109.06 C378.46,104.54 383.34,102.746667 389.98,103.68 C394.639562,104.459932 399.16047,105.915247 403.4,108 C404.143426,108.343258 404.714234,108.975483 404.98,109.75 C405.250933,110.51519 405.207787,111.356539 404.86,112.09 C404.547688,112.835715 403.933356,113.413696 403.17,113.68 C402.407389,113.954222 401.570257,113.936411 400.82,113.63 Z" id="Shape" stroke="#2E3191" stroke-width="0.81" fill="#2B388F" fill-rule="nonzero"></path>
            <path d="M446.83,74.64 C449.33,74.56 453.623333,74.6 459.71,74.76 C463.885965,74.93466 468.068146,74.8946071 472.24,74.64 C473.045778,74.5480161 473.852721,74.8024576 474.46,75.34 C475.076982,75.8766319 475.457795,76.634665 475.52,77.45 C475.610574,78.2573728 475.352272,79.0650239 474.81,79.67 C474.281138,80.2969113 473.518662,80.679956 472.7,80.73 C469.366667,80.9566667 464.956667,80.9966667 459.47,80.85 C453.543333,80.69 449.41,80.65 447.07,80.73 L446.36,80.73 L446.36,80.85 C446.36,85.69 446.01,91.9733333 445.31,99.7 L444.72,105.55 C447.46,106.72 449.97,107.68 452.28,108.42 C454.693842,109.185987 457.155938,109.790654 459.65,110.23 C462.158175,110.695918 464.716285,110.83374 467.26,110.64 C469.65933,110.467119 472.019035,109.9345 474.26,109.06 C475.009196,108.749987 475.850804,108.749987 476.6,109.06 C477.354442,109.349452 477.950548,109.945558 478.24,110.7 C478.550013,111.449196 478.550013,112.290804 478.24,113.04 C477.950548,113.794442 477.354442,114.390548 476.6,114.68 C468.013333,118.12 457.243333,117.223333 444.29,111.99 C444.05,114.103333 443.893333,116.133333 443.82,118.08 C443.66,121.513333 443.736667,126 444.05,131.54 C444.523333,138.413333 444.756667,143.096667 444.75,145.59 C444.75,147.268946 443.388946,148.63 441.71,148.63 C440.031054,148.63 438.67,147.268946 438.67,145.59 C438.67,143.25 438.433333,138.723333 437.96,132.01 C437.653333,126.083333 437.576667,121.36 437.73,117.84 C437.883333,115.026667 438.39,108.783333 439.25,99.11 C439.916667,91.23 440.25,85.1433333 440.25,80.85 C440.237269,80.0373244 440.554824,79.2542615 441.13,78.68 C441.70027,78.0988347 442.486017,77.7801905 443.3,77.8 L443.88,77.8 C443.867543,76.9837405 444.159924,76.1921709 444.7,75.58 C445.228808,74.9573114 446.013583,74.6109785 446.83,74.64 Z" id="Shape" stroke="#2E3191" stroke-width="0.81" fill="#2B388F" fill-rule="nonzero"></path>
            <path d="M493.54,107.42 C493.46,108.52 492.993333,114.59 492.14,125.63 C491.286667,136.67 490.856667,145.08 490.85,150.86 C490.85,152.541707 489.486707,153.905 487.805,153.905 C486.123293,153.905 484.76,152.541707 484.76,150.86 C484.76,146.566667 484.916667,141.96 485.23,137.04 C485.543333,132.12 485.953333,126.716667 486.46,120.83 C486.973333,114.943333 487.306667,110.316667 487.46,106.95 C487.556978,106.176174 487.93407,105.464681 488.52,104.95 C489.091608,104.388786 489.882908,104.110366 490.68,104.19 C491.492465,104.262416 492.246889,104.641417 492.79,105.25 C493.349196,105.826465 493.623898,106.621268 493.54,107.42 Z M491.14,86.52 C492.067712,87.3698231 492.366618,88.7082231 491.888603,89.8719887 C491.410588,91.0357543 490.257211,91.777631 489,91.73 C488.18878,91.7453759 487.405924,91.431512 486.83,90.86 C485.659017,89.6502921 485.659017,87.7297079 486.83,86.52 C488.040508,85.360612 489.949492,85.360612 491.16,86.52 L491.14,86.52 Z" id="Shape" stroke="#2E3191" stroke-width="0.81" fill="#2B388F" fill-rule="nonzero"></path>
            <path d="M515.67,117 C518.63,110.68 522.336667,106.973333 526.79,105.88 C531.456667,104.713333 536.373333,106.586667 541.54,111.5 C542.137238,112.064114 542.477005,112.848472 542.48,113.67 C542.490016,114.479223 542.172669,115.258167 541.6,115.83 C541.067099,116.435632 540.296656,116.778862 539.49,116.77 C538.69213,116.78011 537.920154,116.487045 537.33,115.95 C533.736667,112.51 530.693333,111.103333 528.2,111.73 C525.706667,112.356667 523.403333,114.973333 521.29,119.58 C520.944456,120.325463 520.308281,120.896574 519.53,121.16 C518.769469,121.430377 517.935675,121.408997 517.19,121.1 C516.288894,120.675386 515.637869,119.854207 515.43,118.88 C514.948919,133.452336 516.146802,148.03162 519,162.33 C519.231756,163.08439 519.102617,163.903506 518.65,164.55 C518.204612,165.236242 517.508245,165.720827 516.71,165.9 C515.926496,166.100221 515.094665,165.950637 514.43,165.49 C513.737325,165.034955 513.268884,164.30869 513.14,163.49 C509.280128,144.308148 508.332826,124.654156 510.33,105.19 C510.4092,104.399049 510.810691,103.675641 511.44,103.19 C512.056563,102.6612 512.861201,102.405014 513.67,102.48 C514.4611,102.566243 515.183092,102.970558 515.67,103.6 C516.208393,104.230605 516.461779,105.055921 516.37,105.88 C515.983333,110.486667 515.71,114.35 515.55,117.47 C515.627967,117.325556 515.66918,117.164141 515.67,117 Z" id="Shape" stroke="#2E3191" stroke-width="0.81" fill="#2B388F" fill-rule="nonzero"></path>
            <path d="M576.78,113.63 C573.073369,111.778378 569.134823,110.433016 565.07,109.63 C560.856667,109.076667 557.893333,110.05 556.18,112.55 C555.806506,112.961265 555.559932,113.471777 555.47,114.02 C555.528494,114.571024 555.687809,115.106595 555.94,115.6 C556.354094,116.33596 556.825554,117.038134 557.35,117.7 C557.89,118.41 558.35,118.99 558.81,119.46 C559.47151,120.119034 560.198619,120.708762 560.98,121.22 L562.98,122.74 L565.55,124.38 C566.88,125.31 567.74,125.9 568.13,126.13 C569.938141,127.320884 571.677578,128.612941 573.34,130 C574.947538,131.467077 576.34414,133.14973 577.49,135 C578.881816,137.112586 579.802665,139.499972 580.19,142 C580.583333,144.813333 579.333333,147.193333 576.44,149.14 C574.093695,150.568107 571.519649,151.582842 568.83,152.14 C566.128196,152.85805 563.366922,153.329977 560.58,153.55 C558.419754,153.78589 556.240246,153.78589 554.08,153.55 C551.761434,152.843055 549.492991,151.981114 547.29,150.97 C546.540822,150.616254 545.954434,149.990535 545.65,149.22 C545.339037,148.487142 545.360922,147.655488 545.71,146.94 C546.043634,146.20932 546.650352,145.638502 547.4,145.35 C548.111016,145.040018 548.918984,145.040018 549.63,145.35 C551.439449,146.212985 553.319696,146.918914 555.25,147.46 C556.935543,147.717552 558.648854,147.737749 560.34,147.52 C562.707397,147.335571 565.051542,146.923672 567.34,146.29 C569.356305,145.860768 571.29082,145.11127 573.07,144.07 C573.85,143.52 574.2,143.13 574.13,142.9 C573.788227,140.591219 572.815859,138.421559 571.32,136.63 C569.402873,134.514232 567.193999,132.682482 564.76,131.19 C564.45,130.95 563.67,130.43 562.42,129.61 C561.17,128.79 560.25,128.2 559.67,127.85 C558.793971,127.298479 557.952407,126.694023 557.15,126.04 C556.237095,125.342224 555.378002,124.576729 554.58,123.75 C553.95,123.09 553.25,122.27 552.47,121.3 C551.747294,120.411887 551.120479,119.449877 550.6,118.43 C548.781344,115.484213 549.063835,111.702866 551.3,109.06 C554.42,104.54 559.296667,102.746667 565.93,103.68 C570.593157,104.458294 575.117599,105.913662 579.36,108 C580.096127,108.348594 580.663556,108.975426 580.937381,109.742512 C581.211206,110.509597 581.168981,111.354057 580.82,112.09 C580.506532,112.838545 579.887811,113.41723 579.12,113.68 C578.360702,113.953564 577.52692,113.935748 576.78,113.63 Z" id="Shape" stroke="#2E3191" stroke-width="0.81" fill="#2B388F" fill-rule="nonzero"></path>
            <path d="M601,111.29 C600.141774,111.297548 599.283789,111.257486 598.43,111.17 C597.402006,111.195689 596.375452,111.077888 595.38,110.82 C594.887377,110.755142 594.411966,110.59554 593.98,110.35 C593.114307,109.960208 592.440819,109.239899 592.11,108.35 C591.601554,107.028743 591.9731,105.530571 593.04,104.6 C593.482058,104.095059 594.046935,103.712733 594.68,103.49 C595.059616,103.325331 595.450634,103.188308 595.85,103.08 C598.632034,100.84051 601.754957,99.0612875 605.1,97.81 C605.861164,97.578173 606.68379,97.6647652 607.38,98.05 C608.100335,98.4093735 608.650043,99.0381243 608.91,99.8 C609.182529,100.550271 609.116883,101.381788 608.73,102.08 C608.357614,102.807473 607.731433,103.373171 606.97,103.67 C605.809068,104.057934 604.676364,104.525718 603.58,105.07 L605.69,105.07 L613.41,104.48 C616.41,104.25 618.02,104.13 618.33,104.13 C619.146259,104.117543 619.937829,104.409924 620.55,104.95 C621.167102,105.474388 621.512863,106.250509 621.49,107.06 C621.505941,107.879854 621.213271,108.675775 620.67,109.29 C620.142799,109.902193 619.367558,110.243887 618.56,110.22 C618.17,110.22 616.63,110.34 613.94,110.57 C611.25,110.8 608.94,110.96 607.09,111.04 C606.47,121.893333 606.626667,130.636667 607.56,137.27 C608.34,142.73 609.55,146.24 611.19,147.8 C611.642178,148.270338 612.29535,148.49055 612.94,148.39 C614.193333,148.23 615.716667,147.37 617.51,145.81 C618.120352,145.270846 618.931018,145.016377 619.74,145.11 C620.544065,145.154995 621.298255,145.514133 621.84,146.11 C622.380516,146.719969 622.638357,147.529807 622.55,148.34 C622.492098,149.156524 622.110505,149.916111 621.49,150.45 C618.756667,152.79 616.18,154.123333 613.76,154.45 C611.218186,154.797777 608.661161,153.926906 606.86,152.1 C604.28,149.613333 602.523333,144.946667 601.59,138.1 C600.576667,130.993333 600.38,122.056667 601,111.29 Z" id="Shape" stroke="#2E3191" stroke-width="0.81" fill="#2B388F" fill-rule="nonzero"></path>
            <path d="M163.43,64.82 C138.69,79.02 101.33,72.73 80.08,55.43 C69.88,47.12 71.78,46.92 82.71,44.2 C92.14,41.86 97.71,40.04 108.8,48.41 C115.4,53.41 122.13,57.05 128.3,58.56 C143,62.15 154.09,61.84 164.19,58.13 C183.53,51 184.11,53 163.43,64.82 Z" id="Shape" fill="#90278E"></path>
            <path d="M131,27.58 C136.46,39.08 148.8,49.14 162,49.66 C171.62,50.04 177.66,47.48 162.38,53.1 C153.3,56.44 143.17,56.68 129.61,53.37 C124.51,52.12 118.92,49.16 113.33,45.1 C99.79,35.26 112.39,31.81 122.18,23.63 C131.53,15.78 126,16.92 131,27.58 Z" id="Shape" fill="#00ADEE"></path>
            <path d="M86.43,2.93 C95.9911584,6.96300066 106.178131,9.31097762 116.54,9.87 C126.02,10.53 127.9,9.49 120.54,18.36 C117.069488,22.4757225 112.960499,26.0073594 108.37,28.82 C97.2,35.82 87.37,21.82 81.64,9.53 C76.3,-2 75.75,-1.53 86.43,2.93 Z" id="Shape" fill="#BE1E2D"></path>
            <path d="M74.47,30.27 C75.2557365,25.5856398 75.7433833,20.8561339 75.93,16.11 C76.21,8.11 74.93,8.05 79.29,15.11 C81.62,18.85 84.46,23 87,26.37 C91.23,32.06 94.41,35.81 87.52,37.74 C85.22,38.4066667 82.9033333,38.97 80.57,39.43 C69.29,41.8 72.82,40.16 74.47,30.27 Z" id="Shape" fill="#F6921E"></path>
            <path d="M251.6,238.23 C250.958939,238.274035 250.329838,238.040645 249.872611,237.589157 C249.415383,237.137669 249.174066,236.511566 249.21,235.87 L249.21,216.27 C249.170731,215.627532 249.410982,214.999432 249.868988,214.547174 C250.326995,214.094917 250.95808,213.862619 251.6,213.91 L257.4,213.91 C260.8,213.91 263.4,214.84 265.24,216.72 C267.15207,218.738869 268.239996,221.39983 268.29,224.18 C268.360095,225.439025 268.360095,226.700975 268.29,227.96 C268.239996,230.74017 267.15207,233.401131 265.24,235.42 C263.4,237.3 260.8,238.23 257.4,238.23 L251.6,238.23 Z M265.45,224.28 C265.2,219.53 262.57,216.65 257.4,216.65 L252.05,216.65 L252.05,235.49 L257.4,235.49 C262.53,235.49 265.17,232.65 265.45,227.89 C265.520125,226.687688 265.520125,225.482312 265.45,224.28 Z" id="Shape" stroke="#2E3191" fill="#2B388F" fill-rule="nonzero"></path>
            <path d="M287.35,235.46 C287.376146,235.919203 287.149997,236.356169 286.76,236.6 C285.869132,237.177408 284.898962,237.622069 283.88,237.92 C282.521126,238.345421 281.103835,238.55464 279.68,238.54 C275.23,238.54 272.74,236.22 272.74,232.65 C272.74,229.42 275.23,227.02 279.74,227.02 C281.384489,227.055239 283.017726,227.300561 284.6,227.75 L284.6,226.33 C284.6,223.55 283.21,222.33 280.26,222.33 C278.841996,222.391617 277.44507,222.696032 276.13,223.23 C275.02,223.65 274.13,223.09 274.13,222.16 C274.124858,221.575212 274.483749,221.048838 275.03,220.84 C276.763979,220.062295 278.650184,219.683004 280.55,219.73 C284.85,219.73 287.39,221.81 287.39,226.22 L287.35,235.46 Z M284.57,234.73 L284.57,230.18 C283.000593,229.7299 281.38176,229.474648 279.75,229.42 C277.28,229.42 275.55,230.63 275.55,232.58 C275.55,234.87 277.04,236.01 279.99,236.01 C281.61926,236.130872 283.239481,235.678059 284.57,234.73 Z" id="Shape" stroke="#2E3191" fill="#2B388F" fill-rule="nonzero"></path>
            <path d="M298.48,238.54 C294.91,238.54 293.14,236.25 293.14,232.82 L293.14,217.72 C293.129126,217.345379 293.271086,216.982447 293.53325,216.714625 C293.795414,216.446802 294.155232,216.297126 294.53,216.3 C294.90825,216.294557 295.272604,216.442415 295.540094,216.709906 C295.807585,216.977396 295.955443,217.34175 295.95,217.72 L295.95,220.57 L301.19,220.57 C301.67615,220.527072 302.144904,220.762173 302.401226,221.177485 C302.657549,221.592796 302.657549,222.117204 302.401226,222.532515 C302.144904,222.947827 301.67615,223.182928 301.19,223.14 L296,223.14 L296,232.92 C296,234.76 296.87,235.92 298.67,235.92 C299.615704,235.810557 300.547412,235.602766 301.45,235.3 C301.864598,235.126224 302.339552,235.17898 302.70591,235.439501 C303.072268,235.700022 303.27803,236.131331 303.25,236.58 C303.246472,237.248484 302.767593,237.819777 302.11,237.94 C300.94626,238.35795 299.716334,238.561243 298.48,238.54 Z" id="Shape" stroke="#2E3191" fill="#2B388F" fill-rule="nonzero"></path>
            <path d="M321,235.46 C321.026146,235.919203 320.799997,236.356169 320.41,236.6 C319.520176,237.179306 318.549718,237.624099 317.53,237.92 C316.171126,238.345421 314.753835,238.55464 313.33,238.54 C308.89,238.54 306.39,236.22 306.39,232.65 C306.39,229.42 308.89,227.02 313.39,227.02 C315.034601,227.05392 316.668006,227.299267 318.25,227.75 L318.25,226.33 C318.25,223.55 316.86,222.33 313.91,222.33 C312.491996,222.391617 311.09507,222.696032 309.78,223.23 C308.67,223.65 307.78,223.09 307.78,222.16 C307.774858,221.575212 308.133749,221.048838 308.68,220.84 C310.413979,220.062295 312.300184,219.683004 314.2,219.73 C318.5,219.73 321.04,221.81 321.04,226.22 L321,235.46 Z M318.22,234.73 L318.22,230.18 C316.650593,229.7299 315.03176,229.474648 313.4,229.42 C310.93,229.42 309.2,230.63 309.2,232.58 C309.2,234.87 310.69,236.01 313.64,236.01 C316.11,236 317.68,235.28 318.23,234.73 L318.22,234.73 Z" id="Shape" stroke="#2E3191" fill="#2B388F" fill-rule="nonzero"></path>
            <path d="M353.32,238.37 C352.932669,238.363271 352.567521,238.188 352.32,237.89 L345.79,229.83 C345.384359,229.143743 344.647176,228.721953 343.85,228.72 L339.65,228.72 L339.65,236.91 C339.695075,237.447602 339.433757,237.964814 338.974248,238.247479 C338.514739,238.530144 337.935261,238.530144 337.475752,238.247479 C337.016243,237.964814 336.754925,237.447602 336.8,236.91 L336.8,216.23 C336.760292,215.596249 336.997613,214.976466 337.450442,214.531312 C337.903271,214.086157 338.527021,213.859466 339.16,213.91 L346.24,213.91 C348.287893,213.854058 350.28239,214.567653 351.83,215.91 C353.360506,217.314088 354.188452,219.325339 354.09,221.4 C354.09,225.4 351.83,227.64 348.19,228.23 L354.5,236.04 C354.710608,236.279792 354.821519,236.591059 354.81,236.91 C354.793665,237.721165 354.13133,238.370164 353.32,238.37 Z M339.61,226 L345.85,226 C349.4,226 351.16,224.44 351.16,221.35 C351.16,218.26 349.46,216.63 346.03,216.63 L339.61,216.63 L339.61,226 Z" id="Shape" stroke="#2E3191" fill="#2B388F" fill-rule="nonzero"></path>
            <path d="M374.66,228.31 C374.728482,228.867707 374.532597,229.425401 374.130402,229.817787 C373.728206,230.210172 373.165847,230.39223 372.61,230.31 L362.23,230.31 L362.23,230.87 C362.138125,232.262967 362.657228,233.62692 363.651996,234.606325 C364.646764,235.585731 366.018631,236.083543 367.41,235.97 C368.859755,235.896063 370.288096,235.588784 371.64,235.06 C372.046944,234.83558 372.540709,234.836246 372.947046,235.061763 C373.353384,235.287281 373.615162,235.70594 373.64,236.17 C373.646526,236.697712 373.351511,237.182934 372.88,237.42 C371.146125,238.19803 369.259846,238.577336 367.36,238.53 C362.64,238.53 359.73,235.62 359.48,231.07 C359.371811,229.685444 359.371811,228.294556 359.48,226.91 C359.86,222.47 362.88,219.73 367.15,219.73 C369.171448,219.631301 371.139162,220.398746 372.56,221.84 C373.944789,223.29723 374.683796,225.251092 374.61,227.26 L374.66,228.31 Z M371.47,227.96 C371.586491,227.968342 371.701196,227.927804 371.786575,227.848116 C371.871955,227.768429 371.920298,227.656789 371.92,227.54 C372.09,224.39 370.25,222.27 367.23,222.27 C363.9,222.27 362.13,224.46 362.23,227.96 L371.47,227.96 Z" id="Shape" stroke="#2E3191" fill="#2B388F" fill-rule="nonzero"></path>
            <path d="M387.26,228.1 C390.35,228.9 391.87,230.53 391.87,232.99 C391.87,236.36 389.2,238.54 385.14,238.54 C382.929219,238.632926 380.756046,237.946288 379,236.6 C378.457186,236.131614 378.338182,235.336834 378.72,234.73 C378.916607,234.402405 379.25025,234.180728 379.628435,234.126425 C380.006621,234.072121 380.389158,234.190961 380.67,234.45 C381.992743,235.5634 383.694693,236.122356 385.42,236.01 C387.75,236.01 389.14,234.8 389.14,233.13 C389.14,231.92 388.2,231.13 386.36,230.63 C384.73,230.25 383.9,230.08 383.86,230.04 C380.6,229.21 378.97,227.58 378.97,225.11 C378.97,221.82 381.61,219.74 385.46,219.74 C387.248386,219.647194 389.01414,220.173388 390.46,221.23 C390.746292,221.460451 390.926253,221.797663 390.958336,222.16378 C390.990418,222.529897 390.871848,222.893268 390.63,223.17 C390.162872,223.73525 389.32637,223.815769 388.76,223.35 C387.747723,222.718145 386.583079,222.372553 385.39,222.35 C382.96,222.35 381.75,223.26 381.75,225.06 C381.75,226.21 382.48,226.9 384.46,227.45 L386.23,227.87 L387.26,228.1 Z" id="Shape" stroke="#2E3191" fill="#2B388F" fill-rule="nonzero"></path>
            <path d="M411.55,231.53 C411.482758,233.449895 410.629436,235.257781 409.19,236.53 C407.725331,237.87149 405.795289,238.588978 403.81,238.53 C401.826447,238.578513 399.90019,237.862432 398.43,236.53 C396.990564,235.257781 396.137242,233.449895 396.07,231.53 C395.969996,229.891525 395.969996,228.248475 396.07,226.61 C396.126132,224.713875 396.970595,222.927093 398.4,221.68 C399.895803,220.377033 401.827055,219.684495 403.81,219.74 C405.779544,219.667144 407.703019,220.346439 409.19,221.64 C410.647269,222.898752 411.50449,224.714898 411.55,226.64 C411.648787,228.268503 411.648787,229.901497 411.55,231.53 Z M398.88,231.36 C399.110034,233.911204 401.248446,235.865478 403.81,235.865478 C406.371554,235.865478 408.509966,233.911204 408.74,231.36 C408.84,229.848319 408.84,228.331681 408.74,226.82 C408.333192,224.414457 406.249698,222.653727 403.81,222.653727 C401.370302,222.653727 399.286808,224.414457 398.88,226.82 C398.78,228.331681 398.78,229.848319 398.88,231.36 Z" id="Shape" stroke="#2E3191" fill="#2B388F" fill-rule="nonzero"></path>
            <path d="M416.86,221.44 C416.846514,221.060905 416.986345,220.692367 417.247908,220.417631 C417.509471,220.142896 417.8707,219.985141 418.25,219.98 C418.631924,219.985268 418.996108,220.142057 419.262417,220.415868 C419.528727,220.689679 419.675341,221.058077 419.67,221.44 L419.67,231.5 C419.67,234.24 421.4,235.87 424.32,235.87 C426.009436,235.938143 427.679754,235.491795 429.11,234.59 L429.11,221.44 C429.101968,221.064318 429.244228,220.700971 429.5052,220.43061 C429.766173,220.16025 430.124269,220.005244 430.5,220 C430.881924,220.005268 431.246108,220.162057 431.512417,220.435868 C431.778727,220.709679 431.925341,221.078077 431.92,221.46 L431.92,235.34 C431.946146,235.799203 431.719997,236.236169 431.33,236.48 C429.27115,237.887361 426.823298,238.614723 424.33,238.56 C419.78,238.56 416.87,235.96 416.87,231.49 L416.86,221.44 Z" id="Shape" stroke="#2E3191" fill="#2B388F" fill-rule="nonzero"></path>
            <path d="M447.81,221.44 C447.805205,221.795615 447.654925,222.133739 447.394175,222.375595 C447.133424,222.61745 446.784972,222.741918 446.43,222.72 C446.033478,222.705972 445.638797,222.659145 445.25,222.58 C444.731466,222.489786 444.206314,222.442957 443.68,222.44 C441.81,222.44 440.87,223.52 440.87,225.57 L440.87,237 C440.87,237.784244 440.234244,238.42 439.45,238.42 C438.665756,238.42 438.03,237.784244 438.03,237 L438.03,225.3 C438.03,221.87 440.08,219.79 443.68,219.79 C444.693067,219.77181 445.703463,219.899794 446.68,220.17 C447.326228,220.241662 447.813961,220.789822 447.81,221.44 Z" id="Shape" stroke="#2E3191" fill="#2B388F" fill-rule="nonzero"></path>
            <path d="M462.91,233 C463.10905,232.42745 463.653955,232.048035 464.26,232.06 C464.62621,232.064811 464.974493,232.219305 465.223848,232.48755 C465.473203,232.755795 465.601897,233.114413 465.58,233.48 C465.58,234.48 464.92,235.64 463.58,236.82 C462.146679,238.048911 460.295419,238.679127 458.41,238.58 C456.405562,238.646236 454.454196,237.928822 452.97,236.58 C451.56036,235.288739 450.722099,233.489895 450.64,231.58 C450.539996,229.941525 450.539996,228.298475 450.64,226.66 C450.682837,224.740732 451.527931,222.927226 452.97,221.66 C454.479445,220.364346 456.422126,219.685836 458.41,219.76 C460.293544,219.65954 462.140646,220.306385 463.55,221.56 C464.83,222.74 465.49,223.85 465.49,224.86 C465.511897,225.225587 465.383203,225.584205 465.133848,225.85245 C464.884493,226.120695 464.53621,226.275189 464.17,226.28 C463.563955,226.291965 463.01905,225.91255 462.82,225.34 C462.134614,223.530792 460.38425,222.349196 458.45,222.39 C457.196679,222.288282 455.955891,222.700706 455.012848,223.532469 C454.069805,224.364233 453.505628,225.543789 453.45,226.8 C453.349545,228.325014 453.349545,229.854986 453.45,231.38 C453.493559,232.65212 454.049064,233.852724 454.990483,234.709415 C455.931901,235.566105 457.17942,236.006255 458.45,235.93 C460.404068,235.985489 462.185058,234.815467 462.91,233 Z" id="Shape" stroke="#2E3191" fill="#2B388F" fill-rule="nonzero"></path>
            <path d="M485.15,228.31 C485.219241,228.858755 485.030907,229.408698 484.639802,229.799802 C484.248698,230.190907 483.698755,230.379241 483.15,230.31 L472.73,230.31 L472.73,230.87 C472.635045,232.261996 473.151738,233.626212 474.145017,234.606042 C475.138296,235.585872 476.509427,236.083921 477.9,235.97 C479.353022,235.896263 480.784686,235.588995 482.14,235.06 C482.546944,234.83558 483.040709,234.836246 483.447046,235.061763 C483.853384,235.287281 484.115162,235.70594 484.14,236.17 C484.142257,236.699285 483.843723,237.183919 483.37,237.42 C481.63929,238.196888 479.756518,238.576176 477.86,238.53 C473.14,238.53 470.22,235.62 469.98,231.07 C469.877436,229.68523 469.877436,228.29477 469.98,226.91 C470.37,222.47 473.38,219.73 477.65,219.73 C479.674451,219.630981 481.645367,220.398256 483.07,221.84 C484.43659,223.30532 485.157217,225.25822 485.07,227.26 L485.15,228.31 Z M482,228 C482.117248,228.011544 482.233796,227.972093 482.319925,227.891706 C482.406055,227.811318 482.453441,227.697765 482.45,227.58 C482.63,224.43 480.79,222.31 477.77,222.31 C474.44,222.31 472.67,224.5 472.77,228 L482,228 Z" id="Shape" stroke="#2E3191" fill="#2B388F" fill-rule="nonzero"></path>
            <path d="M515.45,231.71 C515.643504,231.151826 516.179714,230.786228 516.77,230.81 C517.500505,230.845205 518.084795,231.429495 518.12,232.16 C518.115683,232.370313 518.082025,232.578994 518.02,232.78 C517.333154,234.509697 516.119073,235.97919 514.55,236.98 C512.959556,238.044745 511.083814,238.602587 509.17,238.58 C506.599889,238.654514 504.113391,237.66281 502.3,235.84 C500.463927,233.985512 499.392955,231.507997 499.3,228.9 C499.159974,227.025945 499.159974,225.144055 499.3,223.27 C499.425364,220.681177 500.492246,218.227349 502.3,216.37 C504.108628,214.535567 506.594611,213.529594 509.17,213.59 C511.083814,213.567413 512.959556,214.125255 514.55,215.19 C516.120842,216.170974 517.336746,217.628658 518.02,219.35 C518.084569,219.564121 518.118242,219.786362 518.12,220.01 C518.083718,220.735012 517.495644,221.310018 516.77,221.33 C516.179714,221.353772 515.643504,220.988174 515.45,220.43 C514.371934,217.924547 511.897468,216.309051 509.17,216.33 C507.33954,216.27653 505.572634,217.003651 504.31,218.33 C502.999966,219.717596 502.224044,221.524538 502.12,223.43 C502.019997,225.211931 502.019997,226.998069 502.12,228.78 C502.224044,230.685462 502.999966,232.492404 504.31,233.88 C505.572634,235.206349 507.33954,235.93347 509.17,235.88 C511.911936,235.881023 514.387047,234.237517 515.45,231.71 Z" id="Shape" stroke="#2E3191" fill="#2B388F" fill-rule="nonzero"></path>
            <path d="M537.56,228.31 C537.625161,228.85783 537.435496,229.405287 537.045391,229.795391 C536.655287,230.185496 536.10783,230.375161 535.56,230.31 L525.13,230.31 L525.13,230.87 C525.035045,232.261996 525.551738,233.626212 526.545017,234.606042 C527.538296,235.585872 528.909427,236.083921 530.3,235.97 C531.753137,235.897132 533.184939,235.589834 534.54,235.06 C534.946944,234.83558 535.440709,234.836246 535.847046,235.061763 C536.253384,235.287281 536.515162,235.70594 536.54,236.17 C536.546526,236.697712 536.251511,237.182934 535.78,237.42 C534.046125,238.19803 532.159846,238.577336 530.26,238.53 C525.54,238.53 522.62,235.62 522.38,231.07 C522.277436,229.68523 522.277436,228.29477 522.38,226.91 C522.77,222.47 525.79,219.73 530.05,219.73 C532.074659,219.629697 534.046081,220.397169 535.47,221.84 C536.83659,223.30532 537.557217,225.25822 537.47,227.26 L537.56,228.31 Z M534.36,227.96 C534.477248,227.971544 534.593796,227.932093 534.679925,227.851706 C534.766055,227.771318 534.813441,227.657765 534.81,227.54 C534.99,224.39 533.15,222.27 530.13,222.27 C526.8,222.27 525.03,224.46 525.13,227.96 L534.36,227.96 Z" id="Shape" stroke="#2E3191" fill="#2B388F" fill-rule="nonzero"></path>
            <path d="M557.79,236.91 C557.815215,237.292175 557.679297,237.667456 557.415203,237.94485 C557.151108,238.222245 556.782952,238.376422 556.4,238.37 C556.015486,238.372969 555.646439,238.218771 555.378341,237.94312 C555.110243,237.66747 554.966353,237.294283 554.98,236.91 L554.98,227 C554.98,224 552.98,222.46 550.33,222.46 C548.659712,222.400763 547.004529,222.79469 545.54,223.6 L545.54,236.96 C545.559193,237.340623 545.421264,237.712431 545.158479,237.98845 C544.895695,238.264468 544.531106,238.420484 544.15,238.42 C543.765486,238.422969 543.396439,238.268771 543.128341,237.99312 C542.860243,237.71747 542.716353,237.344283 542.73,236.96 L542.73,222.96 C542.713151,222.465548 542.946153,221.995786 543.35,221.71 C545.447788,220.409816 547.88329,219.759189 550.35,219.84 C555.17,219.84 557.74,222.33 557.74,226.92 L557.79,236.91 Z" id="Shape" stroke="#2E3191" fill="#2B388F" fill-rule="nonzero"></path>
            <path d="M569,238.54 C565.43,238.54 563.66,236.25 563.66,232.82 L563.66,217.72 C563.649126,217.345379 563.791086,216.982447 564.05325,216.714625 C564.315414,216.446802 564.675232,216.297126 565.05,216.3 C565.427425,216.297314 565.79017,216.446058 566.057056,216.712944 C566.323942,216.97983 566.472686,217.342575 566.47,217.72 L566.47,220.57 L571.71,220.57 C572.19615,220.527072 572.664904,220.762173 572.921226,221.177485 C573.177549,221.592796 573.177549,222.117204 572.921226,222.532515 C572.664904,222.947827 572.19615,223.182928 571.71,223.14 L566.5,223.14 L566.5,232.92 C566.5,234.76 567.37,235.92 569.17,235.92 C570.115523,235.809492 571.047122,235.601725 571.95,235.3 C572.364598,235.126224 572.839552,235.17898 573.20591,235.439501 C573.572268,235.700022 573.77803,236.131331 573.75,236.58 C573.746472,237.248484 573.267593,237.819777 572.61,237.94 C571.452346,238.35472 570.229566,238.557952 569,238.54 Z" id="Shape" stroke="#2E3191" fill="#2B388F" fill-rule="nonzero"></path>
            <path d="M592.53,228.31 C592.595161,228.85783 592.405496,229.405287 592.015391,229.795391 C591.625287,230.185496 591.07783,230.375161 590.53,230.31 L580.1,230.31 L580.1,230.87 C580.005045,232.261996 580.521738,233.626212 581.515017,234.606042 C582.508296,235.585872 583.879427,236.083921 585.27,235.97 C586.723137,235.897132 588.154939,235.589834 589.51,235.06 C589.916944,234.83558 590.410709,234.836246 590.817046,235.061763 C591.223384,235.287281 591.485162,235.70594 591.51,236.17 C591.516526,236.697712 591.221511,237.182934 590.75,237.42 C589.016125,238.19803 587.129846,238.577336 585.23,238.53 C580.51,238.53 577.59,235.62 577.35,231.07 C577.247436,229.68523 577.247436,228.29477 577.35,226.91 C577.74,222.47 580.76,219.73 585.02,219.73 C587.044659,219.629697 589.016081,220.397169 590.44,221.84 C591.80659,223.30532 592.527217,225.25822 592.44,227.26 L592.53,228.31 Z M589.33,227.96 C589.447248,227.971544 589.563796,227.932093 589.649925,227.851706 C589.736055,227.771318 589.783441,227.657765 589.78,227.54 C589.96,224.39 588.12,222.27 585.1,222.27 C581.77,222.27 580,224.46 580.1,227.96 L589.33,227.96 Z" id="Shape" stroke="#2E3191" fill="#2B388F" fill-rule="nonzero"></path>
            <path d="M607.27,221.44 C607.265205,221.795615 607.114925,222.133739 606.854175,222.375595 C606.593424,222.61745 606.244972,222.741918 605.89,222.72 C605.493478,222.705972 605.098797,222.659145 604.71,222.58 C604.194825,222.489831 603.672998,222.443001 603.15,222.44 C601.27,222.44 600.33,223.52 600.33,225.57 L600.33,237 C600.33,237.784244 599.694244,238.42 598.91,238.42 C598.125756,238.42 597.49,237.784244 597.49,237 L597.49,225.3 C597.49,221.87 599.49,219.79 603.15,219.79 C604.163089,219.771391 605.173546,219.899382 606.15,220.17 C606.792259,220.246376 607.274525,220.793232 607.27,221.44 Z" id="Shape" stroke="#2E3191" fill="#2B388F" fill-rule="nonzero"></path>
        </g>
    </g>
</svg>